<?xml version="1.0" encoding="UTF-8"?>
<svg width="40px" height="40px" viewBox="0 0 40 40" version="1.1" xmlns="http://www.w3.org/2000/svg" xmlns:xlink="http://www.w3.org/1999/xlink">
    <!-- Generator: Sketch 49 (51002) - http://www.bohemiancoding.com/sketch -->
    <title>facebook_hover</title>
    <desc>Created with Sketch.</desc>
    <defs></defs>
    <g id="WEB" stroke="none" stroke-width="1" fill="none" fill-rule="evenodd">
        <g id="sprite_global_a" transform="translate(-42.000000, -86.000000)">
            <g id="facebook_hover" transform="translate(42.000000, 86.000000)">
                <circle id="Oval-4-Copy-2" fill="#FF8B08" cx="20" cy="20" r="20"></circle>
                <path d="M21.3230236,16.8979875 L21.3230236,15.3470143 C21.3230236,15.1142342 21.3333333,14.9337935 21.3541205,14.806439 C21.37474,14.6789088 21.4217207,14.5534 21.4949368,14.4294734 C21.5677757,14.3056785 21.6859608,14.2202042 21.8489892,14.1728309 C22.0122271,14.1254575 22.2293189,14.1017708 22.5002646,14.1017708 L23.9792128,14.1017708 L23.9792128,11 L21.6147564,11 C20.2466171,11 19.2640463,11.3404029 18.6666667,12.0210329 C18.0696223,12.7020144 17.7710164,13.7048977 17.7710164,15.0302981 L17.7710164,16.8979875 L16,16.8979875 L16,19.9999341 L17.7708487,19.9999341 L17.7708487,29 L21.3230236,29 L21.3230236,20.0001099 L23.68748,20.0001099 L24,16.8979875 L21.3230236,16.8979875 Z" id="Fill-1" fill="#FFFFFF"></path>
            </g>
        </g>
    </g>
</svg>