<?xml version="1.0" encoding="UTF-8"?>
<svg width="80px" height="80px" viewBox="0 0 80 80" version="1.1" xmlns="http://www.w3.org/2000/svg" xmlns:xlink="http://www.w3.org/1999/xlink">
    <!-- Generator: Sketch 48.2 (47327) - http://www.bohemiancoding.com/sketch -->
    <title>instagram_over</title>
    <desc>Created with Sketch.</desc>
    <defs>
        <circle id="path-1" cx="20" cy="20" r="20"></circle>
        <filter x="-98.8%" y="-58.8%" width="297.5%" height="297.5%" filterUnits="objectBoundingBox" id="filter-2">
            <feOffset dx="0" dy="16" in="SourceAlpha" result="shadowOffsetOuter1"></feOffset>
            <feGaussianBlur stdDeviation="10.5" in="shadowOffsetOuter1" result="shadowBlurOuter1"></feGaussianBlur>
            <feColorMatrix values="0 0 0 0 0   0 0 0 0 0   0 0 0 0 0  0 0 0 0.149654665 0" type="matrix" in="shadowBlurOuter1"></feColorMatrix>
        </filter>
    </defs>
    <g id="Assets" stroke="none" stroke-width="1" fill="none" fill-rule="evenodd" transform="translate(-831.000000, -166.000000)">
        <g id="instagram_over" transform="translate(851.000000, 170.000000)">
            <g id="Oval-4-Copy-2">
                <use fill="black" fill-opacity="1" filter="url(#filter-2)" xlink:href="#path-1"></use>
                <use fill="#FF8B08" fill-rule="evenodd" xlink:href="#path-1"></use>
            </g>
            <g id="Group-2" transform="translate(11.000000, 11.000000)" fill="#FFFFFF">
                <path d="M16.2655432,12.9354015 C16.2655432,14.7737554 14.7662248,16.2694258 12.9233871,16.2694258 L4.92556982,16.2694258 C3.08290641,16.2694258 1.58358803,14.7737554 1.58358803,12.9354015 L1.58358803,4.95730446 C1.58358803,3.11895053 3.08290641,1.62319319 4.92556982,1.62319319 L12.9233871,1.62319319 C14.7662248,1.62319319 16.2655432,3.11895053 16.2655432,4.95730446 L16.2655432,12.9354015 Z M12.9233871,0.043492944 L4.92556982,0.043492944 C2.20966218,0.043492944 -8.71544762e-06,2.24778751 -8.71544762e-06,4.95730446 L-8.71544762e-06,12.9354015 C-8.71544762e-06,15.6448749 2.20966218,17.8491695 4.92556982,17.8491695 L12.9233871,17.8491695 C15.639469,17.8491695 17.8491399,15.6448749 17.8491399,12.9354015 L17.8491399,4.95730446 C17.8493142,2.24778751 15.639469,0.043492944 12.9233871,0.043492944 Z" id="Fill-1"></path>
                <path d="M8.9244828,11.9544563 C7.2619241,11.9544563 5.90898166,10.6051099 5.90898166,8.94642251 C5.90898166,7.28773509 7.26174979,5.93825836 8.9244828,5.93825836 C10.5873901,5.93825836 11.9401582,7.28773509 11.9401582,8.94642251 C11.9401582,10.6051099 10.5872158,11.9544563 8.9244828,11.9544563 M8.9244828,4.35851465 C6.38850556,4.35851465 4.3252106,6.41661554 4.3252106,8.9465964 C4.3252106,11.4764034 6.38850556,13.5343304 8.9244828,13.5343304 C11.4606343,13.5343304 13.523755,11.4764034 13.523755,8.9465964 C13.523755,6.41661554 11.4606343,4.35851465 8.9244828,4.35851465" id="Fill-4"></path>
                <path d="M13.7167847,3.01889285 C13.4115698,3.01889285 13.111802,3.14217719 12.8963125,3.35801174 C12.6797772,3.57280298 12.5553642,3.87201531 12.5553642,4.17748749 C12.5553642,4.48195984 12.6799515,4.7808244 12.8963125,4.99683283 C13.111802,5.21162407 13.4115698,5.33595173 13.7167847,5.33595173 C14.0228276,5.33595173 14.3217675,5.21162407 14.5381285,4.99683283 C14.7544459,4.7808244 14.8780309,4.48178595 14.8780309,4.17748749 C14.8780309,3.87201531 14.7544459,3.57280298 14.5381285,3.35801174 C14.3227698,3.14217719 14.0228276,3.01889285 13.7167847,3.01889285" id="Fill-6"></path>
            </g>
        </g>
    </g>
</svg>