<?xml version="1.0" encoding="UTF-8"?>
<svg width="731px" height="397px" viewBox="0 0 731 397" version="1.1" xmlns="http://www.w3.org/2000/svg" xmlns:xlink="http://www.w3.org/1999/xlink">
    <!-- Generator: Sketch 48.2 (47327) - http://www.bohemiancoding.com/sketch -->
    <title>path_b</title>
    <desc>Created with Sketch.</desc>
    <defs></defs>
    <g id="sprite_global_b" stroke="none" stroke-width="1" fill="none" fill-rule="evenodd" transform="translate(0.000000, -309.000000)">
        <g id="path_b" transform="translate(0.000000, 310.000000)">
            <g id="Page-1-Copy-7" transform="translate(685.500000, 309.561373)" fill="#EBEBEB">
                <path d="M34.3366782,24.8135431 C33.3397193,25.2795147 32.1435513,24.8409532 31.6866499,23.8450531 C31.2206105,22.8308796 31.658322,21.6522455 32.6543672,21.1862739 C33.6696021,20.7203023 34.8484078,21.1588638 35.3135335,22.1639006 C35.779573,23.1689374 35.3418614,24.3567082 34.3366782,24.8135431" id="Fill-5"></path>
                <path d="M36.0796302,34.7306362 L34.9800321,35.2421358 L27.660832,19.5218221 L28.7595711,19.0196844 C33.1502321,17.0111336 38.3131889,18.9005331 40.340573,23.249556 C42.3670979,27.6070898 40.4608415,32.7229366 36.0796302,34.7306362 Z M25.718495,39.4711564 L18.400154,23.7687153 L22.4806939,21.8963375 L29.7990349,37.5987786 L25.718495,39.4711564 Z M11.2184037,36.5859924 C9.57673807,33.0880503 10.547477,28.9773299 13.3231033,26.534728 L20.3072695,41.5137503 C16.6296292,42.0243988 12.8420291,40.0924454 11.2184037,36.5859924 Z M6.99955495,19.4537356 C5.04175484,18.7388277 4.00229099,16.5004852 4.71531165,14.5600209 C5.44551353,12.6204077 7.69625346,11.581238 9.65491263,12.3046567 L22.5743316,17.0196445 L13.615184,21.121854 C13.305922,21.2580269 13.0997474,21.4282431 12.798217,21.564416 L6.99955495,19.4537356 Z M21.4154583,6.91731517 C22.1370695,4.97685091 24.395541,3.93853232 26.3550592,4.6534402 C28.3729936,5.34281566 29.3961353,7.52158255 28.631571,9.54715489 L27.0251268,13.8791562 L19.8167457,11.2493165 L21.4154583,6.91731517 Z M44.2750725,21.3780293 C41.9641983,16.4238879 36.8613757,13.5557455 31.6554658,13.8110698 L32.6682988,11.0791004 C34.2403805,6.83220709 32.024003,2.06615452 27.7467381,0.50016582 C23.4677551,-1.05731207 18.6578723,1.14698724 17.0772,5.3853697 L15.4707559,9.70971133 L11.1144573,8.11733912 C9.06216051,7.36923908 6.80282998,7.45349609 4.80121775,8.37266337 C2.78242431,9.29183065 1.26188627,10.9429274 0.505912556,12.9684998 C-1.06616915,17.215393 1.15020834,21.9822967 5.42747325,23.5474343 L8.82162342,24.7823526 C6.81142059,27.3177223 5.78913795,30.4931048 5.95235955,33.7187011 L3.59767324,40.0754238 L9.98135582,42.3563203 C13.7955868,45.9563922 19.5942489,47.1138621 24.6541184,44.8074331 L37.8063429,38.7732701 C44.4554753,35.7349116 47.3410614,27.9645437 44.2750725,21.3780293 Z" id="Fill-7"></path>
            </g>
            <path d="M683.074405,355.215391 C587.946182,415.988164 518.971728,404.780947 476.151042,321.593739 C409.454613,192.023427 281.516696,449.161533 117.445685,355.215391 C-24.328869,274.036075 180.707031,-75.3476672 0.9140625,15.1523328" id="Path-9" stroke="#EBEBEB" stroke-width="3" stroke-linecap="round" stroke-dasharray="10"></path>
        </g>
    </g>
</svg>