<?xml version="1.0" encoding="UTF-8"?>
<svg width="145px" height="127px" viewBox="0 0 145 127" version="1.1" xmlns="http://www.w3.org/2000/svg" xmlns:xlink="http://www.w3.org/1999/xlink">
    <!-- Generator: Sketch 49 (51002) - http://www.bohemiancoding.com/sketch -->
    <title>path_d</title>
    <desc>Created with Sketch.</desc>
    <defs></defs>
    <g id="WEB" stroke="none" stroke-width="1" fill="none" fill-rule="evenodd">
        <g id="sprite_global_a" transform="translate(0.000000, -224.000000)" fill="#FFFFFF">
            <g id="path_d" transform="translate(72.500000, 287.500000) scale(-1, 1) translate(-72.500000, -287.500000) translate(0.000000, 224.000000)">
                <path d="M33.2172804,115.988402 C32.1830024,115.508892 30.8587874,115.883937 30.2992599,117.031335 C29.1632496,119.207967 27.8424257,121.400011 26.4351293,123.489304 C25.7721741,124.53395 25.9603787,125.953641 26.9946568,126.623242 C27.3846305,126.914373 27.7559532,127 28.215444,127 C28.978436,127 29.6396957,126.623242 30.0957954,125.953641 C31.6065195,123.780435 33.0138159,121.400011 34.2498629,118.933961 C34.7093536,117.887603 34.3346398,116.553538 33.2172804,115.988402 M36.6931328,100.592714 C35.4723456,100.489962 34.4380676,101.448982 34.3346398,102.680294 C34.1498262,105.06243 33.7768079,107.52848 33.0138159,109.99453 C32.639102,111.141928 33.402094,112.374953 34.5228445,112.749998 C34.8093904,112.854463 34.997595,112.854463 35.1824087,112.854463 C36.1336053,112.854463 36.9813742,112.184862 37.2526603,111.141928 C38.0156523,108.384747 38.5734842,105.627566 38.7616889,102.956012 C38.8634212,101.722987 37.91392,100.678341 36.6931328,100.592714 M34.7093536,97.3560235 C34.4380676,96.2086252 33.3020573,95.4551099 32.0812701,95.7462408 C29.7227771,96.3113773 27.4677118,96.6025082 25.2126466,96.6025082 L24.8413238,96.6025082 C23.6205366,96.6025082 22.5845631,97.5426898 22.5845631,98.7774273 C22.5845631,100.010452 23.5171088,101.053386 24.7395916,101.053386 L25.1126099,101.053386 C27.6559165,101.053386 30.2992599,100.781093 33.1138526,100.010452 C34.2498629,99.7364468 34.997595,98.5890485 34.7093536,97.3560235 M17.7861912,95.5561494 C15.802412,94.7872213 13.44731,93.5524838 11.378754,92.1310799 C10.3444759,91.4649039 8.93717957,91.6532828 8.27591984,92.6962164 C7.61296457,93.7425751 7.80116927,95.163979 8.8354473,95.830155 C11.1922448,97.4587756 13.8203283,98.8801794 16.2788581,99.7364468 C16.5501441,99.8220735 16.7349578,99.8220735 17.0231992,99.8220735 C17.9743959,99.8220735 18.8221647,99.2552245 19.0934508,98.3989571 C19.4664691,97.2686842 18.9069416,95.9346196 17.7861912,95.5561494 M48.6466741,90.1274143 C47.9854143,89.0844806 46.6628949,88.8104751 45.6269213,89.4612383 C43.3718561,90.8997675 41.2032633,92.1310799 39.0482348,93.0746866 C38.7616889,93.2613529 38.4734475,93.4685696 38.2852428,93.6569484 C37.7257153,91.0881463 36.8779464,88.6220962 35.6571592,86.3272997 C35.0976318,85.1970267 33.6750756,84.8202691 32.639102,85.3854056 C31.5217426,85.950542 31.1470288,87.3719459 31.7065562,88.4148795 C32.8273067,90.6086366 33.5902987,92.8863078 34.0650493,95.2650185 C34.2498629,96.4997561 35.3706134,97.2686842 36.589705,97.0648926 C37.1678834,96.9775533 37.6256786,96.6864224 37.91392,96.3113773 C38.2852428,97.0648926 39.0482348,97.5426898 39.8960037,97.5426898 C40.1689852,97.5426898 40.4572267,97.5426898 40.8285494,97.0648926 C43.1870425,96.0202464 45.54384,94.6998821 47.9854143,93.1774387 C49.0179968,92.5095501 49.3062383,91.173773 48.6466741,90.1274143 M6.02085461,87.3719459 C4.88484431,85.7621632 4.32531684,84.3407594 4.32531684,83.0049823 C4.32531684,82.6282246 4.42704911,82.251467 4.51013046,81.8747093 C4.88484431,80.624559 4.13880769,79.3915339 3.00279739,79.1175284 C1.78201019,78.7236454 0.559527463,79.4925735 0.271286043,80.624559 C0.0864724261,81.3951996 0,82.1487149 0,82.917643 C0,85.2809409 0.93424131,87.5586122 2.62977908,89.940748 C3.10283411,90.5230098 3.76578938,90.7970154 4.42704911,90.7970154 C4.88484431,90.7970154 5.25786261,90.7113886 5.54610404,90.5230098 C6.58038207,89.7523692 6.76519569,88.3309653 6.02085461,87.3719459 M30.5705459,79.7682916 C28.6037221,77.867378 26.2486202,76.1719686 23.6205366,74.8361915 C22.5845631,74.271055 21.2620436,74.6461001 20.7042117,75.7780856 C20.1260333,76.8227318 20.5007471,78.1585089 21.6367574,78.7236454 C23.8053502,79.7682916 25.8756019,81.2924475 27.4677118,82.8166034 C27.8424257,83.2961132 28.4189085,83.484492 28.978436,83.484492 C29.5379634,83.484492 30.0957954,83.1933611 30.5705459,82.917643 C31.4183148,82.0613756 31.4183148,80.624559 30.5705459,79.7682916 M15.3276614,72.1817626 C12.0400137,71.7022529 9.02026092,72.1817626 6.49390965,73.4987019 C5.46132715,73.9799241 4.98657657,75.3157012 5.54610404,76.4459742 C5.91742681,77.2149023 6.68211434,77.6789992 7.52988322,77.6789992 C7.90120599,77.6789992 8.17249204,77.5933725 8.37765211,77.4906204 C10.1562712,76.5487263 12.3282551,76.2575953 14.7698295,76.5487263 C15.9906167,76.7371051 17.0231992,75.8808377 17.2114039,74.6461001 C17.397913,73.4147877 16.5501441,72.3684289 15.3276614,72.1817626" id="Fill-1"></path>
                <path d="M53.4152622,89 C52.7077624,89 52.0039002,88.7144346 51.4982833,88.1415836 C50.6907515,87.1868319 50.8926344,85.7538442 51.9020493,84.9917631 C52.9114641,84.2279617 54.0209111,83.3695453 55.1303581,82.5094086 C56.1397729,81.7456072 57.6548046,81.8402222 58.4605177,82.7966942 C59.2698684,83.7497257 59.1680175,85.1809931 58.1586026,85.9465148 C57.0491557,86.8049312 55.8378579,87.7579626 54.7284109,88.5234843 C54.4246771,88.8107699 53.9190602,89 53.4152622,89" id="Fill-3"></path>
                <path d="M122.673356,49.6270863 C120.679439,50.5590295 118.287103,49.6819064 117.3733,47.6901062 C116.441221,45.6617592 117.316644,43.3044911 119.308734,42.3725479 C121.339204,41.4406047 123.696816,42.3177277 124.627067,44.3278013 C125.559146,46.3378749 124.683723,48.7134164 122.673356,49.6270863" id="Fill-5"></path>
                <path d="M126.15926,69.4612725 L123.960064,70.4842716 L109.321664,39.0436441 L111.519142,38.0393687 C120.300464,34.0222673 130.626378,37.8010661 134.681146,46.4991121 C138.734196,55.2141796 134.921683,65.4458732 126.15926,69.4612725 Z M105.43699,78.9423128 L90.800308,47.5374306 L98.9613879,43.7926751 L113.59807,75.1975572 L105.43699,78.9423128 Z M76.4368074,73.1719848 C73.1534761,66.1761005 75.0949541,57.9546598 80.6462065,53.069456 L94.614539,83.0275007 C87.2592584,84.0487976 79.6840582,80.1848907 76.4368074,73.1719848 Z M67.9991099,38.9074712 C64.0835097,37.4776554 62.004582,33.0009703 63.4306233,29.1200418 C64.8910271,25.2408154 69.3925069,23.1624761 73.3098253,24.6093135 L99.1486632,34.0392889 L81.230368,42.243708 C80.6118441,42.5160538 80.1994948,42.8564862 79.5964339,43.128832 L67.9991099,38.9074712 Z M96.8309165,13.8346303 C98.2741391,9.95370182 102.791082,7.87706463 106.710118,9.3068804 C110.745987,10.6856313 112.792271,15.0431651 111.263142,19.0943098 L108.050254,27.7583125 L93.6334913,22.498633 L96.8309165,13.8346303 Z M142.550145,42.7560586 C137.928397,32.8477758 127.722751,27.1114911 117.310932,27.6221396 L119.336598,22.1582007 C122.480761,13.6644142 118.048006,4.13230904 109.493476,1.00033164 C100.93551,-2.11462414 91.3157446,2.29397448 88.1544,10.7707394 L84.9415117,19.4194227 L76.2289147,16.2346782 C72.124321,14.7384782 67.60566,14.9069922 63.6024355,16.7453267 C59.5648486,18.5836613 56.5237725,21.8858549 55.0118251,25.9369995 C51.8676617,34.4307861 56.3004167,43.9645934 64.8549465,47.0948686 L71.6432468,49.5647052 C67.6228412,54.6354447 65.5782759,60.9862097 65.9047191,67.4374023 L61.1953465,80.1508475 L73.9627116,84.7126407 C81.5911737,91.9127844 93.1884977,94.2277242 103.308237,89.6148662 L129.612686,77.5465402 C142.910951,71.4698232 148.682123,55.9290875 142.550145,42.7560586 Z" id="Fill-7"></path>
            </g>
        </g>
    </g>
</svg>