<?xml version="1.0" encoding="UTF-8"?>
<svg width="195px" height="57px" viewBox="0 0 195 57" version="1.1" xmlns="http://www.w3.org/2000/svg" xmlns:xlink="http://www.w3.org/1999/xlink">
    <!-- Generator: Sketch 49 (51002) - http://www.bohemiancoding.com/sketch -->
    <title>path_b</title>
    <desc>Created with Sketch.</desc>
    <defs></defs>
    <g id="WEB" stroke="none" stroke-width="1" fill="none" fill-rule="evenodd">
        <g id="Home-B" transform="translate(-579.000000, -1486.000000)">
            <g id="path_b" transform="translate(580.000000, 1486.000000)">
                <g id="Group-12" transform="translate(69.000000, 0.000000)" fill="#EBEBEB">
                    <g id="Page-1-Copy-7" transform="translate(0.563830, 0.633038)">
                        <path d="M38.720084,27.9812295 C37.5958537,28.5066868 36.2469834,28.0121387 35.7317542,26.8891025 C35.2062203,25.74546 35.6998099,24.416362 36.8230098,23.8909047 C37.9678492,23.3654473 39.2971408,23.8599954 39.8216442,24.9933348 C40.347178,26.1266741 39.8535884,27.4660752 38.720084,27.9812295" id="Fill-5"></path>
                        <path d="M40.6855404,39.1643345 L39.4455681,39.7411319 L31.1920021,22.0139695 L32.4310057,21.4477292 C37.3821766,19.1827677 43.2042343,21.3133671 45.4904333,26.2175845 C47.7756636,31.1313991 45.6260553,36.9003327 40.6855404,39.1643345 Z M29.0017071,44.5100274 L20.7491098,26.8030194 L25.3505698,24.6916147 L33.6031671,42.3986227 L29.0017071,44.5100274 Z M12.6505404,41.2565446 C10.7993004,37.3120567 11.8939635,32.6765635 15.023925,29.9221401 L22.8996869,46.813378 C18.7525606,47.3892157 14.4814371,45.2106299 12.6505404,41.2565446 Z M7.89311516,21.9371912 C5.68538312,21.1310185 4.51322175,18.6069301 5.31726633,16.418747 C6.14068547,14.2315236 8.6787539,13.059694 10.8874547,13.875464 L25.4561612,19.192365 L15.3532926,23.8182609 C15.0045504,23.9718176 14.7720556,24.1637635 14.4320319,24.3173202 L7.89311516,21.9371912 Z M24.1493465,7.80037668 C24.9630784,5.61219358 27.5098654,4.44132368 29.7195349,5.2474964 C31.9950779,6.02487724 33.1488334,8.48178458 32.2866652,10.7659406 L30.475143,15.6509634 L22.346543,12.6853995 L24.1493465,7.80037668 Z M49.9272094,24.1071394 C47.32133,18.5205544 41.5670833,15.2862662 35.6965891,15.5741851 L36.8387199,12.4934536 C38.6114929,7.70440374 36.1121736,2.32991893 31.2888749,0.564016776 C26.4636387,-1.19228808 21.0397284,1.29341114 19.2572681,6.07286371 L17.445746,10.9492489 L12.5333242,9.15359518 C10.2190321,8.30999301 7.67127636,8.40500622 5.41413917,9.44151401 C3.13762741,10.4780218 1.42297814,12.3398969 0.570497138,14.6240529 C-1.20227585,19.4131028 1.29704344,24.7885473 6.12034218,26.5534898 L9.94778811,27.9460572 C7.68096364,30.8050911 6.52817684,34.3858416 6.71223523,38.0232162 L4.05695067,45.1914353 L11.2555715,47.7635102 C15.5567256,51.8231657 22.0956423,53.1283977 27.8014526,50.5275309 L42.6326845,43.7230493 C50.1306424,40.2968152 53.3846011,31.5344855 49.9272094,24.1071394 Z" id="Fill-7"></path>
                    </g>
                </g>
                <path d="M0,19 C4.29492188,45.5839844 26.2275391,50.6819858 34.1357422,44.0478516 C42.0439453,37.4137174 40.0673828,30.8789062 35.3256836,27.4511719 C31.4332638,24.6373745 24.9248047,28.9960938 23.0400391,35.2822266 C20.4149671,44.0374536 22.8925781,53.0488281 38.6982422,55.2050781 C52.3277414,57.06445 62.9787831,54.7574839 70.6513672,48.2841797" id="Path-10" stroke="#EBEBEB" stroke-width="2" stroke-linecap="round" stroke-dasharray="6,5"></path>
                <path d="M122,19 C126.294922,45.5839844 148.227539,50.6819858 156.135742,44.0478516 C164.043945,37.4137174 162.067383,30.8789062 157.325684,27.4511719 C153.433264,24.6373745 146.924805,28.9960938 145.040039,35.2822266 C142.414967,44.0374536 144.892578,53.0488281 160.698242,55.2050781 C174.327741,57.06445 184.978783,54.7574839 192.651367,48.2841797" id="Path-10-Copy" stroke="#FFFFFF" stroke-width="2" stroke-linecap="round" stroke-dasharray="6,5"></path>
            </g>
        </g>
    </g>
</svg>