<?xml version="1.0" encoding="UTF-8"?>
<svg width="456px" height="204px" viewBox="0 0 456 204" version="1.1" xmlns="http://www.w3.org/2000/svg" xmlns:xlink="http://www.w3.org/1999/xlink">
    <!-- Generator: Sketch 48.2 (47327) - http://www.bohemiancoding.com/sketch -->
    <title>path_c</title>
    <desc>Created with Sketch.</desc>
    <defs></defs>
    <g id="sprite_global_b" stroke="none" stroke-width="1" fill="none" fill-rule="evenodd" transform="translate(-1.000000, -840.000000)">
        <g id="path_c" transform="translate(0.000000, 730.000000)">
            <g id="Page-1-Copy-6" transform="translate(32.700000, 143.100000) scale(-1, 1) translate(-32.700000, -143.100000) translate(0.700000, 110.600000)" fill="#979797">
                <path d="M48.0713495,34.7389604 C46.675607,35.3913206 45.0009719,34.7773345 44.3613099,33.3830744 C43.7088546,31.9632315 44.3216508,30.3131438 45.716114,29.6607835 C47.137443,29.0084233 48.787771,29.6224094 49.4389469,31.0294609 C50.0914021,32.4365124 49.4786059,34.0993915 48.0713495,34.7389604" id="Fill-5"></path>
                <path d="M50.5114823,48.6228907 L48.9720449,49.3389901 L38.7251648,27.3305509 L40.2633995,26.6275581 C46.4103249,23.8155871 53.6384645,26.4607463 56.4768021,32.5493784 C59.3139371,38.6499257 56.6451781,45.8121112 50.5114823,48.6228907 Z M36.005893,55.2596189 L25.7602156,33.2762015 L31.4729715,30.6548725 L41.7186489,52.63829 L36.005893,55.2596189 Z M15.7057652,51.2203894 C13.4074333,46.3232704 14.7664679,40.5682619 18.6523446,37.1486192 L28.4301773,58.1192505 C23.2814809,58.8341584 17.9788407,56.1294235 15.7057652,51.2203894 Z M9.79937694,27.2352298 C7.05845678,26.2343588 5.60320738,23.1006792 6.60143631,20.3840293 C7.62371895,17.6685708 10.7747548,16.2137333 13.5168777,17.2265194 L31.6040642,23.8275022 L19.0612576,29.5705956 C18.6282909,29.7612377 18.3396464,29.9995403 17.9175038,30.1901824 L9.79937694,27.2352298 Z M29.9816416,9.68424124 C30.9918973,6.96759128 34.1537574,5.51394524 36.8970829,6.51481628 C39.7221911,7.47994193 41.1545894,10.5302156 40.0841994,13.3660168 L37.8351776,19.4308187 L27.7434439,15.7490431 L29.9816416,9.68424124 Z M61.9851015,29.929241 C58.7498776,22.993443 51.605926,18.9780437 44.3176522,19.3354977 L45.7356183,15.5107405 C47.9365327,9.56508993 44.8336042,2.89261633 38.8454334,0.700232149 C32.8548571,-1.4802369 26.1210212,1.60578214 23.90808,7.53951758 L21.6590582,13.5935959 L15.5602403,11.3642748 C12.6870247,10.3169347 9.52396197,10.4348945 6.72170486,11.7217287 C3.89539404,13.0085629 1.76664078,15.3200984 0.708277579,18.1558997 C-1.4926368,24.1015503 1.61029167,30.7752154 7.59846255,32.966408 L12.3502728,34.6952936 C9.53598882,38.2448113 8.10479313,42.6903468 8.33330337,47.2061816 L5.03674253,56.1055933 L13.9738982,59.2988485 C19.3138216,64.3389491 27.4319484,65.9594069 34.5157657,62.7304063 L52.92888,54.2825781 C62.2376655,50.0288762 66.2774859,39.1503612 61.9851015,29.929241 Z" id="Fill-7"></path>
            </g>
            <path d="M117.937041,63.7 C162.317863,147.958904 67.8349071,193.910049 120.207503,240.463069 C172.580098,287.01609 213.325061,114.599788 283.568032,134.041231 C353.811003,153.482674 298.221355,314.699539 407.7,331.8" id="Path-4-Copy-4" stroke="#979797" stroke-width="2.1" stroke-linecap="round" stroke-dasharray="7" transform="translate(255.800000, 197.750000) rotate(-36.000000) translate(-255.800000, -197.750000) "></path>
        </g>
    </g>
</svg>