<?xml version="1.0" encoding="UTF-8"?>
<svg width="1495px" height="1084px" viewBox="0 0 1495 1084" version="1.1" xmlns="http://www.w3.org/2000/svg" xmlns:xlink="http://www.w3.org/1999/xlink">
    <!-- Generator: Sketch 48.2 (47327) - http://www.bohemiancoding.com/sketch -->
    <title>sprite_global_b</title>
    <desc>Created with Sketch.</desc>
    <defs></defs>
    <g id="WEB" stroke="none" stroke-width="1" fill="none" fill-rule="evenodd">
        <g id="sprite_global_b">
            <path d="M1457,1.05845718 C1302.20796,-20.7180235 1412.03593,301.533205 1188.36409,230.787614 C964.692245,160.042022 871.509969,359.848175 683.3992,283.07542 C495.288431,206.302664 449.101618,173.699362 275.628588,187.150161 C215.543203,191.809078 178.379622,246.23495 210.264657,287.478668 C239.167876,324.865368 292.508671,309.342542 306.662001,272.991036 C342.061964,182.069539 177.152974,-17.7427797 0,50.9468198" id="Path-7" stroke="#EBEBEB" stroke-width="3" stroke-linecap="round" stroke-dasharray="10" transform="translate(728.500000, 154.500000) scale(-1, 1) translate(-728.500000, -154.500000) "></path>
            <g id="Group-12" transform="translate(0.000000, 310.000000)">
                <g id="Page-1-Copy-7" transform="translate(685.500000, 309.561373)" fill="#EBEBEB">
                    <path d="M34.3366782,24.8135431 C33.3397193,25.2795147 32.1435513,24.8409532 31.6866499,23.8450531 C31.2206105,22.8308796 31.658322,21.6522455 32.6543672,21.1862739 C33.6696021,20.7203023 34.8484078,21.1588638 35.3135335,22.1639006 C35.779573,23.1689374 35.3418614,24.3567082 34.3366782,24.8135431" id="Fill-5"></path>
                    <path d="M36.0796302,34.7306362 L34.9800321,35.2421358 L27.660832,19.5218221 L28.7595711,19.0196844 C33.1502321,17.0111336 38.3131889,18.9005331 40.340573,23.249556 C42.3670979,27.6070898 40.4608415,32.7229366 36.0796302,34.7306362 Z M25.718495,39.4711564 L18.400154,23.7687153 L22.4806939,21.8963375 L29.7990349,37.5987786 L25.718495,39.4711564 Z M11.2184037,36.5859924 C9.57673807,33.0880503 10.547477,28.9773299 13.3231033,26.534728 L20.3072695,41.5137503 C16.6296292,42.0243988 12.8420291,40.0924454 11.2184037,36.5859924 Z M6.99955495,19.4537356 C5.04175484,18.7388277 4.00229099,16.5004852 4.71531165,14.5600209 C5.44551353,12.6204077 7.69625346,11.581238 9.65491263,12.3046567 L22.5743316,17.0196445 L13.615184,21.121854 C13.305922,21.2580269 13.0997474,21.4282431 12.798217,21.564416 L6.99955495,19.4537356 Z M21.4154583,6.91731517 C22.1370695,4.97685091 24.395541,3.93853232 26.3550592,4.6534402 C28.3729936,5.34281566 29.3961353,7.52158255 28.631571,9.54715489 L27.0251268,13.8791562 L19.8167457,11.2493165 L21.4154583,6.91731517 Z M44.2750725,21.3780293 C41.9641983,16.4238879 36.8613757,13.5557455 31.6554658,13.8110698 L32.6682988,11.0791004 C34.2403805,6.83220709 32.024003,2.06615452 27.7467381,0.50016582 C23.4677551,-1.05731207 18.6578723,1.14698724 17.0772,5.3853697 L15.4707559,9.70971133 L11.1144573,8.11733912 C9.06216051,7.36923908 6.80282998,7.45349609 4.80121775,8.37266337 C2.78242431,9.29183065 1.26188627,10.9429274 0.505912556,12.9684998 C-1.06616915,17.215393 1.15020834,21.9822967 5.42747325,23.5474343 L8.82162342,24.7823526 C6.81142059,27.3177223 5.78913795,30.4931048 5.95235955,33.7187011 L3.59767324,40.0754238 L9.98135582,42.3563203 C13.7955868,45.9563922 19.5942489,47.1138621 24.6541184,44.8074331 L37.8063429,38.7732701 C44.4554753,35.7349116 47.3410614,27.9645437 44.2750725,21.3780293 Z" id="Fill-7"></path>
                </g>
                <path d="M683.074405,355.215391 C587.946182,415.988164 518.971728,404.780947 476.151042,321.593739 C409.454613,192.023427 281.516696,449.161533 117.445685,355.215391 C-24.328869,274.036075 180.707031,-75.3476672 0.9140625,15.1523328" id="Path-9" stroke="#EBEBEB" stroke-width="3" stroke-linecap="round" stroke-dasharray="10"></path>
            </g>
            <g id="Group-13" transform="translate(0.000000, 730.000000)">
                <g id="Page-1-Copy-6" transform="translate(32.700000, 143.100000) scale(-1, 1) translate(-32.700000, -143.100000) translate(0.700000, 110.600000)" fill="#979797">
                    <path d="M48.0713495,34.7389604 C46.675607,35.3913206 45.0009719,34.7773345 44.3613099,33.3830744 C43.7088546,31.9632315 44.3216508,30.3131438 45.716114,29.6607835 C47.137443,29.0084233 48.787771,29.6224094 49.4389469,31.0294609 C50.0914021,32.4365124 49.4786059,34.0993915 48.0713495,34.7389604" id="Fill-5"></path>
                    <path d="M50.5114823,48.6228907 L48.9720449,49.3389901 L38.7251648,27.3305509 L40.2633995,26.6275581 C46.4103249,23.8155871 53.6384645,26.4607463 56.4768021,32.5493784 C59.3139371,38.6499257 56.6451781,45.8121112 50.5114823,48.6228907 Z M36.005893,55.2596189 L25.7602156,33.2762015 L31.4729715,30.6548725 L41.7186489,52.63829 L36.005893,55.2596189 Z M15.7057652,51.2203894 C13.4074333,46.3232704 14.7664679,40.5682619 18.6523446,37.1486192 L28.4301773,58.1192505 C23.2814809,58.8341584 17.9788407,56.1294235 15.7057652,51.2203894 Z M9.79937694,27.2352298 C7.05845678,26.2343588 5.60320738,23.1006792 6.60143631,20.3840293 C7.62371895,17.6685708 10.7747548,16.2137333 13.5168777,17.2265194 L31.6040642,23.8275022 L19.0612576,29.5705956 C18.6282909,29.7612377 18.3396464,29.9995403 17.9175038,30.1901824 L9.79937694,27.2352298 Z M29.9816416,9.68424124 C30.9918973,6.96759128 34.1537574,5.51394524 36.8970829,6.51481628 C39.7221911,7.47994193 41.1545894,10.5302156 40.0841994,13.3660168 L37.8351776,19.4308187 L27.7434439,15.7490431 L29.9816416,9.68424124 Z M61.9851015,29.929241 C58.7498776,22.993443 51.605926,18.9780437 44.3176522,19.3354977 L45.7356183,15.5107405 C47.9365327,9.56508993 44.8336042,2.89261633 38.8454334,0.700232149 C32.8548571,-1.4802369 26.1210212,1.60578214 23.90808,7.53951758 L21.6590582,13.5935959 L15.5602403,11.3642748 C12.6870247,10.3169347 9.52396197,10.4348945 6.72170486,11.7217287 C3.89539404,13.0085629 1.76664078,15.3200984 0.708277579,18.1558997 C-1.4926368,24.1015503 1.61029167,30.7752154 7.59846255,32.966408 L12.3502728,34.6952936 C9.53598882,38.2448113 8.10479313,42.6903468 8.33330337,47.2061816 L5.03674253,56.1055933 L13.9738982,59.2988485 C19.3138216,64.3389491 27.4319484,65.9594069 34.5157657,62.7304063 L52.92888,54.2825781 C62.2376655,50.0288762 66.2774859,39.1503612 61.9851015,29.929241 Z" id="Fill-7"></path>
                </g>
                <path d="M117.937041,63.7 C162.317863,147.958904 67.8349071,193.910049 120.207503,240.463069 C172.580098,287.01609 213.325061,114.599788 283.568032,134.041231 C353.811003,153.482674 298.221355,314.699539 407.7,331.8" id="Path-4-Copy-4" stroke="#979797" stroke-width="2.1" stroke-linecap="round" stroke-dasharray="7" transform="translate(255.800000, 197.750000) rotate(-36.000000) translate(-255.800000, -197.750000) "></path>
            </g>
        </g>
    </g>
</svg>