<?xml version="1.0" encoding="UTF-8"?>
<svg width="178px" height="1007px" viewBox="0 0 178 1007" version="1.1" xmlns="http://www.w3.org/2000/svg" xmlns:xlink="http://www.w3.org/1999/xlink">
    <!-- Generator: Sketch 49 (51002) - http://www.bohemiancoding.com/sketch -->
    <title>sprite_global_a</title>
    <desc>Created with Sketch.</desc>
    <defs>
        <polygon id="path-1" points="2.59831287e-05 0.142012946 19.9477774 0.142012946 19.9477774 20.5390625 2.59831287e-05 20.5390625"></polygon>
        <polygon id="path-3" points="8.49495785 17.9823073 0 17.9823073 0 8.7804878e-06 8.49495785 8.7804878e-06"></polygon>
        <polygon id="path-5" points="2.36232668e-21 0.0174971614 2.36232668e-21 17.8231737 17.8491399 17.8231737 17.8491399 0.0174971614"></polygon>
        <polygon id="path-7" points="0.0167788462 0.150192308 24.4283173 0.150192308 24.4283173 37.9807692 0.0167788462 37.9807692"></polygon>
        <linearGradient x1="50%" y1="4.22712054%" x2="50%" y2="100%" id="linearGradient-9">
            <stop stop-color="#FFCA00" offset="0%"></stop>
            <stop stop-color="#E04E00" offset="100%"></stop>
        </linearGradient>
        <circle id="path-10" cx="31.2" cy="31.2" r="27.6"></circle>
        <filter x="-3.6%" y="-1.8%" width="107.2%" height="107.2%" filterUnits="objectBoundingBox" id="filter-12">
            <feOffset dx="0" dy="1" in="SourceAlpha" result="shadowOffsetOuter1"></feOffset>
            <feGaussianBlur stdDeviation="0.5" in="shadowOffsetOuter1" result="shadowBlurOuter1"></feGaussianBlur>
            <feColorMatrix values="0 0 0 0 0   0 0 0 0 0   0 0 0 0 0  0 0 0 0.121094 0" type="matrix" in="shadowBlurOuter1"></feColorMatrix>
        </filter>
        <linearGradient x1="50%" y1="0%" x2="50%" y2="94.6516033%" id="linearGradient-13">
            <stop stop-color="#FFFFFF" offset="0%"></stop>
            <stop stop-color="#FFFFFF" stop-opacity="0.699162138" offset="100%"></stop>
        </linearGradient>
        <path d="M31.0958474,0 L29.8504588,0 L29.8504588,2.45282012 L26.1220666,2.45282012 L26.1220666,0 L6.21916949,0 L6.21916949,2.45282012 L2.49077738,2.45282012 L2.49077738,0 L1.24538869,0 C0.558170462,0 0,0.551385362 0,1.23024979 L0,28.2573479 C0,28.9362123 0.558170462,29.4875977 1.24538869,29.4875977 L2.49077738,29.4875977 L2.49077738,28.2573479 L6.21916949,28.2573479 L6.21916949,29.4875977 L26.1220666,29.4875977 L26.1220666,28.2573479 L29.8504588,28.2573479 L29.8504588,29.4875977 L31.0958474,29.4875977 C31.7815109,29.4875977 32.3412361,28.9362123 32.3412361,28.2573479 L32.3412361,1.23024979 C32.3412361,0.551385362 31.7815109,0 31.0958474,0 L31.0958474,0 Z M2.49077738,20.8835286 L6.21916949,20.8835286 L6.21916949,24.574278 L2.49077738,24.574278 L2.49077738,20.8835286 Z M2.49077738,13.5173888 L6.21916949,13.5173888 L6.21916949,17.2004587 L2.49077738,17.2004587 L2.49077738,13.5173888 Z M2.49077738,6.14356949 L6.21916949,6.14356949 L6.21916949,9.8266394 L2.49077738,9.8266394 L2.49077738,6.14356949 Z M21.8759287,15.5509103 L13.786344,20.2123436 C13.6526318,20.2722434 13.5127005,20.3075689 13.3681048,20.3075689 C13.1970777,20.3075689 13.0276053,20.2599563 12.8752356,20.1708745 C12.6015922,20.0080699 12.438339,19.7147145 12.438339,19.4029283 L12.438339,10.0846693 C12.438339,9.77288317 12.6015922,9.47952772 12.8752356,9.31672313 C13.1550983,9.14931086 13.501817,9.13702372 13.786344,9.27525404 L21.8759287,13.9366874 C22.1915515,14.0933484 22.3859006,14.398991 22.3859006,14.7399591 C22.3859006,15.0824631 22.1915515,15.3942492 21.8759287,15.5509103 L21.8759287,15.5509103 Z M26.1220666,20.8835286 L29.8504588,20.8835286 L29.8504588,24.574278 L26.1220666,24.574278 L26.1220666,20.8835286 Z M26.1220666,13.5173888 L29.8504588,13.5173888 L29.8504588,17.2004587 L26.1220666,17.2004587 L26.1220666,13.5173888 Z M26.1220666,6.14356949 L29.8504588,6.14356949 L29.8504588,9.8266394 L26.1220666,9.8266394 L26.1220666,6.14356949 Z" id="path-14"></path>
        <filter x="-93.1%" y="-44.4%" width="286.1%" height="341.5%" filterUnits="objectBoundingBox" id="filter-15">
            <feMorphology radius="0.6" operator="dilate" in="SourceAlpha" result="shadowSpreadOuter1"></feMorphology>
            <feOffset dx="0" dy="14" in="shadowSpreadOuter1" result="shadowOffsetOuter1"></feOffset>
            <feGaussianBlur stdDeviation="5.5" in="shadowOffsetOuter1" result="shadowBlurOuter1"></feGaussianBlur>
            <feComposite in="shadowBlurOuter1" in2="SourceAlpha" operator="out" result="shadowBlurOuter1"></feComposite>
            <feColorMatrix values="0 0 0 0 0   0 0 0 0 0   0 0 0 0 0  0 0 0 0.186537591 0" type="matrix" in="shadowBlurOuter1" result="shadowMatrixOuter1"></feColorMatrix>
            <feMorphology radius="0.6" operator="dilate" in="SourceAlpha" result="shadowSpreadOuter2"></feMorphology>
            <feOffset dx="0" dy="14" in="shadowSpreadOuter2" result="shadowOffsetOuter2"></feOffset>
            <feGaussianBlur stdDeviation="3" in="shadowOffsetOuter2" result="shadowBlurOuter2"></feGaussianBlur>
            <feComposite in="shadowBlurOuter2" in2="SourceAlpha" operator="out" result="shadowBlurOuter2"></feComposite>
            <feColorMatrix values="0 0 0 0 0   0 0 0 0 0   0 0 0 0 0  0 0 0 0.0623018569 0" type="matrix" in="shadowBlurOuter2" result="shadowMatrixOuter2"></feColorMatrix>
            <feMerge>
                <feMergeNode in="shadowMatrixOuter1"></feMergeNode>
                <feMergeNode in="shadowMatrixOuter2"></feMergeNode>
            </feMerge>
        </filter>
        <linearGradient x1="50%" y1="0%" x2="50%" y2="100%" id="linearGradient-16">
            <stop stop-color="#B4EC51" offset="0%"></stop>
            <stop stop-color="#429321" offset="100%"></stop>
        </linearGradient>
        <circle id="path-17" cx="31.2" cy="31.2" r="27.6"></circle>
        <filter x="-3.6%" y="-1.8%" width="107.2%" height="107.2%" filterUnits="objectBoundingBox" id="filter-19">
            <feOffset dx="0" dy="1" in="SourceAlpha" result="shadowOffsetOuter1"></feOffset>
            <feGaussianBlur stdDeviation="0.5" in="shadowOffsetOuter1" result="shadowBlurOuter1"></feGaussianBlur>
            <feColorMatrix values="0 0 0 0 0   0 0 0 0 0   0 0 0 0 0  0 0 0 0.121094 0" type="matrix" in="shadowBlurOuter1"></feColorMatrix>
        </filter>
        <linearGradient x1="50%" y1="0%" x2="50%" y2="95.5446687%" id="linearGradient-20">
            <stop stop-color="#FFFFFF" offset="0%"></stop>
            <stop stop-color="#FFFFFF" stop-opacity="0.699162138" offset="99.0652902%"></stop>
        </linearGradient>
        <path d="M22.021718,0.107946 C14.6927878,0.107946 8.75027616,6.0353604 8.75027616,13.3467012 C8.75027616,20.6029188 14.601532,26.491914 21.8517645,26.5829508 L21.8517645,32.21721 L30.9204157,23.1703236 C33.6086948,20.7465732 35.2956715,17.2454148 35.2956715,13.3467012 C35.2923227,6.0353604 29.3506483,0.107946 22.021718,0.107946 L22.021718,0.107946 Z" id="path-21"></path>
        <filter x="-113.4%" y="-40.8%" width="326.8%" height="321.7%" filterUnits="objectBoundingBox" id="filter-22">
            <feMorphology radius="0.6" operator="dilate" in="SourceAlpha" result="shadowSpreadOuter1"></feMorphology>
            <feOffset dx="0" dy="14" in="shadowSpreadOuter1" result="shadowOffsetOuter1"></feOffset>
            <feGaussianBlur stdDeviation="5.5" in="shadowOffsetOuter1" result="shadowBlurOuter1"></feGaussianBlur>
            <feComposite in="shadowBlurOuter1" in2="SourceAlpha" operator="out" result="shadowBlurOuter1"></feComposite>
            <feColorMatrix values="0 0 0 0 0   0 0 0 0 0   0 0 0 0 0  0 0 0 0.186537591 0" type="matrix" in="shadowBlurOuter1" result="shadowMatrixOuter1"></feColorMatrix>
            <feMorphology radius="0.6" operator="dilate" in="SourceAlpha" result="shadowSpreadOuter2"></feMorphology>
            <feOffset dx="0" dy="14" in="shadowSpreadOuter2" result="shadowOffsetOuter2"></feOffset>
            <feGaussianBlur stdDeviation="3" in="shadowOffsetOuter2" result="shadowBlurOuter2"></feGaussianBlur>
            <feComposite in="shadowBlurOuter2" in2="SourceAlpha" operator="out" result="shadowBlurOuter2"></feComposite>
            <feColorMatrix values="0 0 0 0 0   0 0 0 0 0   0 0 0 0 0  0 0 0 0.0623018569 0" type="matrix" in="shadowBlurOuter2" result="shadowMatrixOuter2"></feColorMatrix>
            <feMerge>
                <feMergeNode in="shadowMatrixOuter1"></feMergeNode>
                <feMergeNode in="shadowMatrixOuter2"></feMergeNode>
            </feMerge>
        </filter>
        <path d="M10.8238615,25.866547 L10.8238615,24.2825821 L9.50779809,24.2661339 C5.75427203,24.2217237 2.70286832,21.1664643 2.70286832,17.4557428 C2.70286832,14.4004834 4.75017054,11.8082418 7.55782799,10.9471768 C7.7200482,9.96110521 7.98376002,9.01039731 8.34147638,8.10081 C3.66454299,8.71103946 0.041625,12.6693069 0.041625,17.4557428 C0.041625,22.1558256 3.58052124,26.1009344 8.15929061,26.7917602 L8.15929061,32.21721 L14.729625,25.7250922 C13.9434809,25.2785227 13.2055869,24.7645154 12.516775,24.1896496 L10.8238615,25.866547 Z" id="path-23"></path>
        <filter x="-204.9%" y="-54.8%" width="509.9%" height="395.8%" filterUnits="objectBoundingBox" id="filter-24">
            <feMorphology radius="0.6" operator="dilate" in="SourceAlpha" result="shadowSpreadOuter1"></feMorphology>
            <feOffset dx="0" dy="14" in="shadowSpreadOuter1" result="shadowOffsetOuter1"></feOffset>
            <feGaussianBlur stdDeviation="5.5" in="shadowOffsetOuter1" result="shadowBlurOuter1"></feGaussianBlur>
            <feComposite in="shadowBlurOuter1" in2="SourceAlpha" operator="out" result="shadowBlurOuter1"></feComposite>
            <feColorMatrix values="0 0 0 0 0   0 0 0 0 0   0 0 0 0 0  0 0 0 0.186537591 0" type="matrix" in="shadowBlurOuter1" result="shadowMatrixOuter1"></feColorMatrix>
            <feMorphology radius="0.6" operator="dilate" in="SourceAlpha" result="shadowSpreadOuter2"></feMorphology>
            <feOffset dx="0" dy="14" in="shadowSpreadOuter2" result="shadowOffsetOuter2"></feOffset>
            <feGaussianBlur stdDeviation="3" in="shadowOffsetOuter2" result="shadowBlurOuter2"></feGaussianBlur>
            <feComposite in="shadowBlurOuter2" in2="SourceAlpha" operator="out" result="shadowBlurOuter2"></feComposite>
            <feColorMatrix values="0 0 0 0 0   0 0 0 0 0   0 0 0 0 0  0 0 0 0.0623018569 0" type="matrix" in="shadowBlurOuter2" result="shadowMatrixOuter2"></feColorMatrix>
            <feMerge>
                <feMergeNode in="shadowMatrixOuter1"></feMergeNode>
                <feMergeNode in="shadowMatrixOuter2"></feMergeNode>
            </feMerge>
        </filter>
        <polygon id="path-25" points="5.4397543e-05 0.297314286 41.7621022 0.297314286 41.7621022 43 5.4397543e-05 43"></polygon>
        <polygon id="path-27" points="0.0143461782 0.0579957957 83.9158176 0.0579957957 83.9158176 94.7269497 0.0143461782 94.7269497"></polygon>
        <polygon id="path-29" points="0.0143992416 0.201589382 79.8826147 0.201589382 79.8826147 88.5553357 0.0143992416 88.5553357"></polygon>
        <polygon id="path-31" points="0.0168423077 0.150882781 24.5911244 0.150882781 24.5911244 38.192053 0.0168423077 38.192053"></polygon>
        <polygon id="path-33" points="0 0.220643709 21.4820965 0.220643709 21.4820965 41.5077033 0 41.5077033"></polygon>
    </defs>
    <g id="sprite_global_a" stroke="none" stroke-width="1" fill="none" fill-rule="evenodd">
        <g id="Group-2-Copy" transform="translate(0.000000, 134.000000)" fill="#FF8B08">
            <path d="M6.671,5.13617661 L1.07089062,8.88598247 C0.957632812,8.96174026 0.82884375,9 0.69978125,9 C0.5831875,9 0.466320312,8.96882974 0.360554687,8.90566895 C0.137976562,8.77360547 0,8.52277861 0,8.24998024 L0,0.750368524 C0,0.477570148 0.137976562,0.2266847 0.360554687,0.0943868619 C0.58296875,-0.0385554739 0.85509375,-0.0302941829 1.07089062,0.114307705 L6.671,3.86411356 C6.87542187,4.0014502 7,4.24155496 7,4.50017438 C7,4.75855944 6.87542187,4.99883997 6.671,5.13617661 Z" id="Fill-1"></path>
        </g>
        <g id="Group-2-Copy-2" transform="translate(7.000000, 134.000000)" fill="#FF9C2B">
            <path d="M6.671,5.13617661 L1.07089062,8.88598247 C0.957632812,8.96174026 0.82884375,9 0.69978125,9 C0.5831875,9 0.466320312,8.96882974 0.360554687,8.90566895 C0.137976562,8.77360547 0,8.52277861 0,8.24998024 L0,0.750368524 C0,0.477570148 0.137976562,0.2266847 0.360554687,0.0943868619 C0.58296875,-0.0385554739 0.85509375,-0.0302941829 1.07089062,0.114307705 L6.671,3.86411356 C6.87542187,4.0014502 7,4.24155496 7,4.50017438 C7,4.75855944 6.87542187,4.99883997 6.671,5.13617661 Z" id="Fill-1"></path>
        </g>
        <g id="Group-10" transform="translate(0.000000, 20.000000)" fill="#FFFFFF" font-family="MaterialIcons-Regular, Material Icons" font-size="18" font-weight="normal">
            <text id="keyboard_arrow_right-copy">
                <tspan x="0" y="18">keyboard_arrow_right</tspan>
            </text>
        </g>
        <g id="Group-10-Copy" transform="translate(18.000000, 20.000000)" fill="#FF8B08" font-family="MaterialIcons-Regular, Material Icons" font-size="18" font-weight="normal">
            <text id="keyboard_arrow_right-copy">
                <tspan x="0" y="18">keyboard_arrow_right</tspan>
            </text>
        </g>
        <g id="Group" fill="#FFFFFF" font-family="MaterialIcons-Regular, Material Icons" font-size="18" font-weight="normal">
            <text id="phone">
                <tspan x="0.5" y="18">phone</tspan>
            </text>
        </g>
        <g id="Group-8" transform="translate(20.000000, 0.000000)">
            <g id="Page-1-Copy-3" transform="translate(0.890145, 0.000000)">
                <path d="M14.8700851,10.9201019 C14.5110944,11.0854473 14.0833607,10.9290051 13.9179958,10.5703327 C13.7523764,10.2091166 13.9089574,9.78557794 14.2666751,9.61896064 C14.6283392,9.45361522 15.0533995,9.61005742 15.2188917,9.96872978 C15.3843839,10.3299459 15.2278028,10.7547564 14.8700851,10.9201019" id="Fill-1" fill="#FFFFFF"></path>
                <g id="Group-5">
                    <mask id="mask-2" fill="white">
                        <use xlink:href="#path-1"></use>
                    </mask>
                    <g id="Clip-4"></g>
                    <path d="M15.8170306,15.5407496 L15.3367282,15.7666793 L12.1269026,8.79953588 L12.6086693,8.57800742 C14.532661,7.6845582 16.798136,8.52225853 17.6855239,10.4514633 C18.5758405,12.3821352 17.7411687,14.6531687 15.8170306,15.5407496 Z M11.2745124,17.6445364 L8.06615111,10.6817942 L9.85718107,9.85142929 L13.0670066,16.8156386 L11.2745124,17.6445364 Z M4.91650976,16.3637792 C4.19883845,14.8116129 4.62496036,12.9895046 5.84197042,11.9068026 L8.90096934,18.5482552 C7.2901992,18.777119 5.63095953,17.9188796 4.91650976,16.3637792 Z M3.06998145,8.76872728 C2.21026949,8.45183889 1.75354294,7.46009559 2.06822886,6.59892204 C2.38760064,5.73774849 3.374417,5.28002081 4.23398252,5.59837628 L9.89525382,7.68895943 L5.96936769,9.50813353 C5.8345023,9.56681657 5.74078477,9.64310451 5.60914092,9.70618878 L3.06998145,8.76872728 Z M9.38991129,3.20997672 C9.70489007,2.34880318 10.6960994,1.8910755 11.555665,2.20649681 C12.4388063,2.51311568 12.8867468,3.47698454 12.5530245,4.37630206 L11.8499966,6.2967044 L8.68717621,5.13037907 L9.38991129,3.20997672 Z M19.4105123,9.62256545 C18.3986558,7.42488576 16.1611496,6.15439804 13.8767847,6.26589581 L14.3248717,5.05409112 C15.0145742,3.17183275 14.0407904,1.05777639 12.1649754,0.363849492 C10.2906247,-0.327143253 8.18051579,0.651396367 7.48788463,2.52925351 L6.78485668,4.44965585 L4.87111533,3.7410582 C3.97347706,3.41096612 2.98343916,3.44617594 2.10351936,3.85549012 C1.21906013,4.26187014 0.554251361,4.99540809 0.221846978,5.89325853 C-0.467855508,7.7755169 0.505781823,9.88957326 2.38013253,10.5835002 L3.8665805,11.1321865 C2.98651427,12.2530325 2.53549863,13.6628925 2.60871545,15.0932915 L1.57635823,17.9115442 L4.37616959,18.9223595 C6.0499062,20.5200052 8.58906567,21.0334817 10.8075354,20.0094628 L16.5768748,17.3364505 C19.4910508,15.9852736 20.7547732,12.5420465 19.4105123,9.62256545 Z" id="Fill-3" fill="#FFFFFF" mask="url(#mask-2)"></path>
                </g>
            </g>
        </g>
        <g id="twitter" transform="translate(1.000000, 44.000000)">
            <path d="M30.7529244,13.1087227 C29.9497311,13.4626723 29.092084,13.7036303 28.1867899,13.8125378 C29.1084202,13.2584706 29.8176807,12.3831261 30.1512101,11.3403361 C29.2881176,11.8440336 28.3310924,12.2115966 27.3128067,12.4157983 C26.4987227,11.5445378 25.3388571,11 24.0510252,11 C21.5842689,11 19.5830924,13.0011765 19.5830924,15.4652101 C19.5830924,15.8191597 19.6239328,16.1594958 19.6988067,16.4862185 C15.9850588,16.3092437 12.6919664,14.5258824 10.4879496,11.8304202 C10.1013277,12.4852269 9.88351261,13.2475798 9.88351261,14.078 C9.88351261,15.6299328 10.6730924,16.9953613 11.8710756,17.7971933 C11.1386723,17.7740504 10.4484706,17.5725714 9.8467563,17.239042 L9.8467563,17.2934958 C9.8467563,19.4580336 11.3850756,21.2658992 13.4311765,21.6770252 C13.0554454,21.7777647 12.6606555,21.8322185 12.2536134,21.8322185 C11.9677311,21.8322185 11.6954622,21.8049916 11.4231933,21.7532605 C11.994958,23.5284538 13.6421849,24.8203697 15.602521,24.8571261 C14.0778151,26.0551092 12.1447059,26.7684538 10.0618487,26.7684538 C9.70789916,26.7684538 9.35394958,26.7480336 9,26.7071933 C10.987563,27.9732437 13.3290756,28.7138151 15.8611765,28.7138151 C24.0836975,28.7138151 28.5761345,21.9070924 28.5761345,16.0124706 C28.5761345,15.8218824 28.5761345,15.6312941 28.562521,15.4407059 C29.4337815,14.8144874 30.1961345,14.0249076 30.7951261,13.1264202 L30.7529244,13.1087227 Z" id="Shape" fill="#3F4247"></path>
            <circle id="Oval-4" stroke="#3F4247" cx="20" cy="20" r="20"></circle>
        </g>
        <g id="facebook" transform="translate(42.000000, 44.000000)">
            <circle id="Oval-4-Copy" stroke="#3F4247" cx="20" cy="20" r="20"></circle>
            <g id="Page-1" transform="translate(16.000000, 11.000000)">
                <mask id="mask-4" fill="white">
                    <use xlink:href="#path-3"></use>
                </mask>
                <g id="Clip-2"></g>
                <path d="M5.65236649,5.89219024 L5.65236649,4.34274146 C5.65236649,4.11019024 5.66331414,3.92992683 5.68538743,3.80269756 C5.70728272,3.67529268 5.75717016,3.54990732 5.83491623,3.42610244 C5.91226178,3.30242927 6.03775916,3.21703902 6.21087435,3.1697122 C6.38421204,3.12238537 6.6147356,3.09872195 6.90244503,3.09872195 L8.47289791,3.09872195 L8.47289791,0 L5.96214921,0 C4.50936126,0 3.46599738,0.340068293 2.83165707,1.02002927 C2.19767277,1.70034146 1.88059162,2.70223902 1.88059162,4.02633659 L1.88059162,5.89219024 L0,5.89219024 L0,8.9910878 L1.88041361,8.9910878 L1.88041361,17.9823073 L5.65236649,17.9823073 L5.65236649,8.99126341 L8.16311518,8.99126341 L8.4949712,5.89219024 L5.65236649,5.89219024 Z" id="Fill-1" fill="#3F4247" mask="url(#mask-4)"></path>
            </g>
        </g>
        <g id="instagram" transform="translate(123.000000, 44.000000)">
            <circle id="Oval-4-Copy-3" stroke="#3F4247" cx="20.9333333" cy="20" r="20"></circle>
            <g id="Group-3" transform="translate(12.000000, 11.025996)">
                <mask id="mask-6" fill="white">
                    <use xlink:href="#path-5"></use>
                </mask>
                <g id="Clip-2"></g>
                <path d="M16.2655432,12.9094057 C16.2655432,14.7477596 14.7662248,16.24343 12.9233871,16.24343 L4.92556982,16.24343 C3.08290641,16.24343 1.58358803,14.7477596 1.58358803,12.9094057 L1.58358803,4.93130868 C1.58358803,3.09295474 3.08290641,1.5971974 4.92556982,1.5971974 L12.9233871,1.5971974 C14.7662248,1.5971974 16.2655432,3.09295474 16.2655432,4.93130868 L16.2655432,12.9094057 Z M12.9233871,0.0174971614 L4.92556982,0.0174971614 C2.20966218,0.0174971614 -8.71544715e-06,2.22179173 -8.71544715e-06,4.93130868 L-8.71544715e-06,12.9094057 C-8.71544715e-06,15.6188792 2.20966218,17.8231737 4.92556982,17.8231737 L12.9233871,17.8231737 C15.639469,17.8231737 17.8491399,15.6188792 17.8491399,12.9094057 L17.8491399,4.93130868 C17.8493142,2.22179173 15.639469,0.0174971614 12.9233871,0.0174971614 Z" id="Fill-1" fill="#3F4247" mask="url(#mask-6)"></path>
            </g>
            <path d="M20.9244828,22.9544563 C19.2619241,22.9544563 17.9089817,21.6051099 17.9089817,19.9464225 C17.9089817,18.2877351 19.2617498,16.9382584 20.9244828,16.9382584 C22.5873901,16.9382584 23.9401582,18.2877351 23.9401582,19.9464225 C23.9401582,21.6051099 22.5872158,22.9544563 20.9244828,22.9544563 M20.9244828,15.3585146 C18.3885056,15.3585146 16.3252106,17.4166155 16.3252106,19.9465964 C16.3252106,22.4764034 18.3885056,24.5343304 20.9244828,24.5343304 C23.4606343,24.5343304 25.523755,22.4764034 25.523755,19.9465964 C25.523755,17.4166155 23.4606343,15.3585146 20.9244828,15.3585146" id="Fill-4" fill="#3F4247"></path>
            <path d="M25.7167847,14.0188928 C25.4115698,14.0188928 25.111802,14.1421772 24.8963125,14.3580117 C24.6797772,14.572803 24.5553642,14.8720153 24.5553642,15.1774875 C24.5553642,15.4819598 24.6799515,15.7808244 24.8963125,15.9968328 C25.111802,16.2116241 25.4115698,16.3359517 25.7167847,16.3359517 C26.0228276,16.3359517 26.3217675,16.2116241 26.5381285,15.9968328 C26.7544459,15.7808244 26.8780309,15.481786 26.8780309,15.1774875 C26.8780309,14.8720153 26.7544459,14.572803 26.5381285,14.3580117 C26.3227698,14.1421772 26.0228276,14.0188928 25.7167847,14.0188928" id="Fill-6" fill="#3F4247"></path>
        </g>
        <g id="youtube" transform="translate(82.000000, 44.000000)">
            <circle id="Oval-4-Copy-3" stroke="#3F4247" cx="20.9333333" cy="20" r="20"></circle>
            <path d="M30.15,14.3186603 C29.6075,13.3582775 29.01875,13.1816268 27.82,13.1144498 C26.6225,13.0335885 23.61125,13 21.0025,13 C18.38875,13 15.37625,13.0335885 14.18,13.1132057 C12.98375,13.1816268 12.39375,13.3570335 11.84625,14.3186603 C11.2875,15.277799 11,16.9298565 11,19.8383732 C11,19.8408612 11,19.8421053 11,19.8421053 C11,19.8445933 11,19.8458373 11,19.8458373 L11,19.8483254 C11,22.7444019 11.2875,24.4088995 11.84625,25.3580861 C12.39375,26.3184689 12.9825,26.4926316 14.17875,26.5734928 C15.37625,26.6431579 18.38875,26.6842105 21.0025,26.6842105 C23.61125,26.6842105 26.6225,26.6431579 27.82125,26.5747368 C29.02,26.4938756 29.60875,26.3197129 30.15125,25.3593301 C30.715,24.4101435 31,22.7456459 31,19.8495694 C31,19.8495694 31,19.8458373 31,19.8433493 C31,19.8433493 31,19.8408612 31,19.8396172 C31,16.9298565 30.715,15.277799 30.15,14.3186603 Z M18.5,23.5741627 L18.5,16.1100478 L24.75,19.8421053 L18.5,23.5741627 Z" id="Shape" fill="#3F4247" fill-rule="nonzero"></path>
        </g>
        <g id="youtube_over" transform="translate(83.000000, 86.000000)">
            <circle id="Oval-4-Copy-2" fill="#FF8B08" cx="20" cy="20" r="20"></circle>
            <path d="M29.15,14.3186603 C28.6075,13.3582775 28.01875,13.1816268 26.82,13.1144498 C25.6225,13.0335885 22.61125,13 20.0025,13 C17.38875,13 14.37625,13.0335885 13.18,13.1132057 C11.98375,13.1816268 11.39375,13.3570335 10.84625,14.3186603 C10.2875,15.277799 10,16.9298565 10,19.8383732 C10,19.8408612 10,19.8421053 10,19.8421053 C10,19.8445933 10,19.8458373 10,19.8458373 L10,19.8483254 C10,22.7444019 10.2875,24.4088995 10.84625,25.3580861 C11.39375,26.3184689 11.9825,26.4926316 13.17875,26.5734928 C14.37625,26.6431579 17.38875,26.6842105 20.0025,26.6842105 C22.61125,26.6842105 25.6225,26.6431579 26.82125,26.5747368 C28.02,26.4938756 28.60875,26.3197129 29.15125,25.3593301 C29.715,24.4101435 30,22.7456459 30,19.8495694 C30,19.8495694 30,19.8458373 30,19.8433493 C30,19.8433493 30,19.8408612 30,19.8396172 C30,16.9298565 29.715,15.277799 29.15,14.3186603 Z M17.5,23.5741627 L17.5,16.1100478 L23.75,19.8421053 L17.5,23.5741627 Z" id="Shape" fill="#FFFFFF" fill-rule="nonzero"></path>
        </g>
        <g id="facebook_over" transform="translate(42.000000, 86.000000)" fill="#FF8B08">
            <circle id="Oval-4-Copy-2" cx="20" cy="20" r="20"></circle>
        </g>
        <path d="M63.3230236,102.897988 L63.3230236,101.347014 C63.3230236,101.114234 63.3333333,100.933793 63.3541205,100.806439 C63.37474,100.678909 63.4217207,100.5534 63.4949368,100.429473 C63.5677757,100.305679 63.6859608,100.220204 63.8489892,100.172831 C64.0122271,100.125457 64.2293189,100.101771 64.5002646,100.101771 L65.9792128,100.101771 L65.9792128,97 L63.6147564,97 C62.2466171,97 61.2640463,97.3404029 60.6666667,98.0210329 C60.0696223,98.7020144 59.7710164,99.7048977 59.7710164,101.030298 L59.7710164,102.897988 L58,102.897988 L58,105.999934 L59.7708487,105.999934 L59.7708487,115 L63.3230236,115 L63.3230236,106.00011 L65.68748,106.00011 L66,102.897988 L63.3230236,102.897988 Z" id="Fill-1" fill="#FFFFFF"></path>
        <g id="twitter_over" transform="translate(1.000000, 86.000000)">
            <circle id="Oval-4-Copy-2" fill="#FF8B08" cx="20" cy="20" r="20"></circle>
            <path d="M30.7529244,13.1087227 C29.9497311,13.4626723 29.092084,13.7036303 28.1867899,13.8125378 C29.1084202,13.2584706 29.8176807,12.3831261 30.1512101,11.3403361 C29.2881176,11.8440336 28.3310924,12.2115966 27.3128067,12.4157983 C26.4987227,11.5445378 25.3388571,11 24.0510252,11 C21.5842689,11 19.5830924,13.0011765 19.5830924,15.4652101 C19.5830924,15.8191597 19.6239328,16.1594958 19.6988067,16.4862185 C15.9850588,16.3092437 12.6919664,14.5258824 10.4879496,11.8304202 C10.1013277,12.4852269 9.88351261,13.2475798 9.88351261,14.078 C9.88351261,15.6299328 10.6730924,16.9953613 11.8710756,17.7971933 C11.1386723,17.7740504 10.4484706,17.5725714 9.8467563,17.239042 L9.8467563,17.2934958 C9.8467563,19.4580336 11.3850756,21.2658992 13.4311765,21.6770252 C13.0554454,21.7777647 12.6606555,21.8322185 12.2536134,21.8322185 C11.9677311,21.8322185 11.6954622,21.8049916 11.4231933,21.7532605 C11.994958,23.5284538 13.6421849,24.8203697 15.602521,24.8571261 C14.0778151,26.0551092 12.1447059,26.7684538 10.0618487,26.7684538 C9.70789916,26.7684538 9.35394958,26.7480336 9,26.7071933 C10.987563,27.9732437 13.3290756,28.7138151 15.8611765,28.7138151 C24.0836975,28.7138151 28.5761345,21.9070924 28.5761345,16.0124706 C28.5761345,15.8218824 28.5761345,15.6312941 28.562521,15.4407059 C29.4337815,14.8144874 30.1961345,14.0249076 30.7951261,13.1264202 L30.7529244,13.1087227 Z" id="Shape" fill="#FFFFFF"></path>
        </g>
        <g id="instagram_over" transform="translate(124.000000, 86.000000)">
            <circle id="Oval-4-Copy-2" fill="#FF8B08" cx="20" cy="20" r="20"></circle>
            <g id="Group-2" transform="translate(11.000000, 11.000000)" fill="#FFFFFF">
                <path d="M16.2655432,12.9354015 C16.2655432,14.7737554 14.7662248,16.2694258 12.9233871,16.2694258 L4.92556982,16.2694258 C3.08290641,16.2694258 1.58358803,14.7737554 1.58358803,12.9354015 L1.58358803,4.95730446 C1.58358803,3.11895053 3.08290641,1.62319319 4.92556982,1.62319319 L12.9233871,1.62319319 C14.7662248,1.62319319 16.2655432,3.11895053 16.2655432,4.95730446 L16.2655432,12.9354015 Z M12.9233871,0.043492944 L4.92556982,0.043492944 C2.20966218,0.043492944 -8.71544762e-06,2.24778751 -8.71544762e-06,4.95730446 L-8.71544762e-06,12.9354015 C-8.71544762e-06,15.6448749 2.20966218,17.8491695 4.92556982,17.8491695 L12.9233871,17.8491695 C15.639469,17.8491695 17.8491399,15.6448749 17.8491399,12.9354015 L17.8491399,4.95730446 C17.8493142,2.24778751 15.639469,0.043492944 12.9233871,0.043492944 Z" id="Fill-1"></path>
                <path d="M8.9244828,11.9544563 C7.2619241,11.9544563 5.90898166,10.6051099 5.90898166,8.94642251 C5.90898166,7.28773509 7.26174979,5.93825836 8.9244828,5.93825836 C10.5873901,5.93825836 11.9401582,7.28773509 11.9401582,8.94642251 C11.9401582,10.6051099 10.5872158,11.9544563 8.9244828,11.9544563 M8.9244828,4.35851465 C6.38850556,4.35851465 4.3252106,6.41661554 4.3252106,8.9465964 C4.3252106,11.4764034 6.38850556,13.5343304 8.9244828,13.5343304 C11.4606343,13.5343304 13.523755,11.4764034 13.523755,8.9465964 C13.523755,6.41661554 11.4606343,4.35851465 8.9244828,4.35851465" id="Fill-4"></path>
                <path d="M13.7167847,3.01889285 C13.4115698,3.01889285 13.111802,3.14217719 12.8963125,3.35801174 C12.6797772,3.57280298 12.5553642,3.87201531 12.5553642,4.17748749 C12.5553642,4.48195984 12.6799515,4.7808244 12.8963125,4.99683283 C13.111802,5.21162407 13.4115698,5.33595173 13.7167847,5.33595173 C14.0228276,5.33595173 14.3217675,5.21162407 14.5381285,4.99683283 C14.7544459,4.7808244 14.8780309,4.48178595 14.8780309,4.17748749 C14.8780309,3.87201531 14.7544459,3.57280298 14.5381285,3.35801174 C14.3227698,3.14217719 14.0228276,3.01889285 13.7167847,3.01889285" id="Fill-6"></path>
            </g>
        </g>
        <g id="Page-1-Copy-2" transform="translate(0.000000, 144.000000)">
            <path d="M19.6111538,32.7924038 C19.3178846,32.6577885 18.9424038,32.7630769 18.78375,33.0851923 C18.4616346,33.69625 18.0871154,34.3116346 17.6880769,34.8981731 C17.5000962,35.1914423 17.5534615,35.59 17.8467308,35.7779808 C17.9573077,35.8597115 18.0625962,35.88375 18.1928846,35.88375 C18.4092308,35.88375 18.5967308,35.7779808 18.7260577,35.59 C19.1544231,34.9799038 19.5534615,34.3116346 19.9039423,33.6193269 C20.0342308,33.3255769 19.9279808,32.9510577 19.6111538,32.7924038 M20.5967308,28.4702885 C20.2505769,28.4414423 19.9573077,28.7106731 19.9279808,29.0563462 C19.8755769,29.7250962 19.7698077,30.4174038 19.5534615,31.1097115 C19.4472115,31.4318269 19.6635577,31.7779808 19.9813462,31.8832692 C20.0625962,31.9125962 20.1159615,31.9125962 20.1683654,31.9125962 C20.4380769,31.9125962 20.6784615,31.7246154 20.7553846,31.4318269 C20.9717308,30.6577885 21.1299038,29.88375 21.1832692,29.13375 C21.2121154,28.7875962 20.9428846,28.4943269 20.5967308,28.4702885 M20.0342308,27.5616346 C19.9573077,27.2395192 19.6351923,27.0279808 19.2890385,27.1097115 C18.6202885,27.2683654 17.9808654,27.3500962 17.3414423,27.3500962 L17.2361538,27.3500962 C16.89,27.3500962 16.59625,27.6140385 16.59625,27.9606731 C16.59625,28.3068269 16.8606731,28.5996154 17.2073077,28.5996154 L17.3130769,28.5996154 C18.0342308,28.5996154 18.78375,28.5231731 19.5818269,28.3068269 C19.9039423,28.2299038 20.1159615,27.9077885 20.0342308,27.5616346 M15.2356731,27.0563462 C14.6731731,26.8404808 14.0053846,26.4938462 13.4188462,26.0948077 C13.1255769,25.9077885 12.7265385,25.9606731 12.5390385,26.2534615 C12.3510577,26.5472115 12.4044231,26.94625 12.6976923,27.1332692 C13.3659615,27.5904808 14.1111538,27.9895192 14.8082692,28.2299038 C14.8851923,28.2539423 14.9375962,28.2539423 15.0193269,28.2539423 C15.2890385,28.2539423 15.5294231,28.0948077 15.6063462,27.8544231 C15.7121154,27.5371154 15.5534615,27.1625962 15.2356731,27.0563462 M23.9861538,25.5323077 C23.7986538,25.2395192 23.4236538,25.1625962 23.1299038,25.3452885 C22.4904808,25.7491346 21.8755769,26.0948077 21.2645192,26.3597115 C21.1832692,26.4121154 21.1015385,26.4702885 21.0481731,26.5231731 C20.8895192,25.8020192 20.6491346,25.1097115 20.3029808,24.4654808 C20.1443269,24.1481731 19.7409615,24.0424038 19.4472115,24.2010577 C19.1303846,24.3597115 19.0241346,24.75875 19.1827885,25.0515385 C19.5005769,25.6674038 19.7169231,26.3068269 19.8515385,26.9746154 C19.9039423,27.32125 20.2217308,27.5371154 20.5674038,27.4799038 C20.7313462,27.4553846 20.8611538,27.3736538 20.9428846,27.2683654 C21.0481731,27.4799038 21.2645192,27.6140385 21.5049038,27.6140385 C21.5823077,27.6140385 21.6640385,27.6140385 21.7693269,27.4799038 C22.4380769,27.1866346 23.1063462,26.8159615 23.7986538,26.3885577 C24.0914423,26.2010577 24.1731731,25.8260577 23.9861538,25.5323077 M11.8996154,24.75875 C11.5775,24.3068269 11.4188462,23.9077885 11.4188462,23.5327885 C11.4188462,23.4270192 11.4476923,23.32125 11.47125,23.2154808 C11.5775,22.8645192 11.3659615,22.5183654 11.0438462,22.4414423 C10.6976923,22.3308654 10.3510577,22.5467308 10.2693269,22.8645192 C10.2169231,23.0808654 10.1924038,23.2924038 10.1924038,23.5082692 C10.1924038,24.1717308 10.4573077,24.8111538 10.9380769,25.4799038 C11.0722115,25.6433654 11.2601923,25.7202885 11.4476923,25.7202885 C11.5775,25.7202885 11.6832692,25.69625 11.765,25.6433654 C12.0582692,25.4270192 12.1106731,25.0279808 11.8996154,24.75875 M18.8606731,22.6241346 C18.3029808,22.0904808 17.6351923,21.6145192 16.89,21.2395192 C16.59625,21.0808654 16.22125,21.1861538 16.0630769,21.5039423 C15.8991346,21.7972115 16.0053846,22.1722115 16.3275,22.3308654 C16.9424038,22.6241346 17.5294231,23.0520192 17.9808654,23.4799038 C18.0871154,23.6145192 18.2505769,23.6674038 18.4092308,23.6674038 C18.5678846,23.6674038 18.7260577,23.5856731 18.8606731,23.5082692 C19.1010577,23.2678846 19.1010577,22.8645192 18.8606731,22.6241346 M14.5385577,20.4943269 C13.6063462,20.3597115 12.7500962,20.4943269 12.03375,20.8640385 C11.7409615,20.9991346 11.6063462,21.3741346 11.765,21.6914423 C11.8702885,21.9073077 12.0871154,22.0375962 12.3275,22.0375962 C12.4327885,22.0375962 12.5097115,22.0135577 12.5678846,21.9847115 C13.0722115,21.7202885 13.6880769,21.6385577 14.3803846,21.7202885 C14.7265385,21.7731731 15.0193269,21.5327885 15.0726923,21.1861538 C15.1255769,20.8404808 14.8851923,20.5467308 14.5385577,20.4943269" id="Fill-1" fill="#FFFFFF"></path>
            <path d="M25.2649038,25.2939904 C25.0778846,25.2939904 24.8918269,25.2141827 24.7581731,25.0540865 C24.5447115,24.7872596 24.5980769,24.3867788 24.8649038,24.1737981 C25.1317308,23.9603365 25.425,23.7204327 25.7182692,23.4800481 C25.9850962,23.2665865 26.3855769,23.2930288 26.5985577,23.5603365 C26.8125,23.8266827 26.7855769,24.2266827 26.51875,24.440625 C26.2254808,24.6805288 25.9052885,24.946875 25.6120192,25.1608173 C25.5317308,25.2411058 25.3980769,25.2939904 25.2649038,25.2939904" id="Fill-3" fill="#FFFFFF"></path>
            <path d="M44.9092788,13.9461538 C44.3847596,14.1913462 43.7554327,13.9605769 43.5150481,13.4365385 C43.2698558,12.9028846 43.5001442,12.2826923 44.0241827,12.0375 C44.5583173,11.7923077 45.1785096,12.0230769 45.4232212,12.5519231 C45.6684135,13.0807692 45.438125,13.7057692 44.9092788,13.9461538" id="Fill-5" fill="#FFFFFF"></path>
            <path d="M45.8755288,19.6191346 L45.2601442,19.9080769 L41.1639904,11.0277885 L41.7788942,10.7441346 C44.2361058,9.60951923 47.1255288,10.6768269 48.2601442,13.1335577 C49.3942788,15.5950962 48.3274519,18.485 45.8755288,19.6191346 Z M40.0769712,22.2970192 L35.9812981,13.4268269 L38.2649519,12.3691346 L42.360625,21.2393269 L40.0769712,22.2970192 Z M31.9620673,20.6672115 C31.0433173,18.69125 31.5865865,16.3691346 33.1399519,14.9893269 L37.0486058,23.4508654 C34.9904327,23.7393269 32.8707212,22.6479808 31.9620673,20.6672115 Z M29.6010096,10.9893269 C28.5053365,10.5854808 27.9236058,9.32105769 28.3226442,8.22490385 C28.7312981,7.12923077 29.9909135,6.54221154 31.0870673,6.95086538 L38.3173558,9.61432692 L33.3034135,11.9316346 C33.1303365,12.0085577 33.0149519,12.1047115 32.8462019,12.1816346 L29.6010096,10.9893269 Z M37.6687981,3.90759615 C38.0726442,2.81144231 39.3365865,2.22490385 40.4332212,2.62875 C41.5625481,3.01817308 42.1351442,4.24894231 41.7072596,5.39317308 L40.8082212,7.84028846 L36.7740865,6.35471154 L37.6687981,3.90759615 Z M50.4620673,12.0763462 C49.1687981,9.27778846 46.3130288,7.65759615 43.3995673,7.80182692 L43.9663942,6.25855769 C44.8462019,3.85951923 43.6058173,1.16721154 41.2120673,0.282596154 C38.8173558,-0.597211538 36.1255288,0.647980769 35.2409135,3.04221154 L34.341875,5.485 L31.9038942,4.58548077 C30.7553365,4.16288462 29.4909135,4.21048077 28.3707212,4.72971154 C27.2409135,5.24894231 26.3899519,6.18163462 25.966875,7.32586538 C25.0870673,9.72490385 26.3274519,12.4176923 28.7212019,13.3018269 L30.6207212,13.9994231 C29.4957212,15.4316346 28.9236058,17.2253846 29.0149519,19.0475 L27.6971635,22.6383654 L31.2697596,23.9268269 C33.404375,25.9604808 36.6495673,26.6143269 39.4812981,25.3114423 L46.841875,21.9027885 C50.5630288,20.1864423 52.1779327,15.7970192 50.4620673,12.0763462 Z" id="Fill-7" fill="#FFFFFF"></path>
            <path d="M35.9366827,34.4182692 C33.1886058,34.4182692 30.7607212,35.3788462 29.1337981,37.0326923 C29.0535096,35.6721154 27.9862019,34.6581731 26.625625,34.6581731 C25.1852404,34.6581731 24.0910096,35.7788462 24.0910096,37.2197115 L24.0910096,59.4163462 C24.0910096,60.8572115 25.0251442,61.9774038 26.4386058,61.9774038 C27.8794712,61.9774038 28.7866827,60.8572115 28.7866827,59.4163462 L28.7866827,47.1706731 C28.7866827,42.2615385 31.4280288,39.4341346 35.7496635,39.4341346 C37.1371635,39.4341346 38.3376442,38.3134615 38.3376442,36.9259615 C38.3376442,35.5389423 37.2972596,34.4182692 35.9366827,34.4182692" id="Fill-9" fill="#FFFFFF"></path>
            <path d="M51.3034615,57.4172596 C46.5005769,57.4172596 44.1784615,54.4028365 44.1784615,48.2105288 C44.1784615,42.0470673 46.5005769,39.0614904 51.3034615,39.0614904 C56.1058654,39.0614904 58.4279808,42.0470673 58.4279808,48.2105288 C58.4279808,54.426875 56.1058654,57.4172596 51.3034615,57.4172596 M51.3034615,34.2826442 C43.3803846,34.2826442 39.0294231,39.2201442 39.0294231,48.2105288 C39.0294231,57.2297596 43.3803846,62.1912981 51.3034615,62.1912981 C59.2260577,62.1912981 63.5770192,57.2297596 63.5770192,48.2105288 C63.5770192,39.2489904 59.2260577,34.2826442 51.3034615,34.2826442" id="Fill-11" fill="#FFFFFF"></path>
            <path d="M96.2041827,34.6319231 C95.136875,34.6319231 94.2037019,35.2718269 93.8301442,36.2857692 L88.3070673,52.0266346 L83.7984135,36.3391346 C83.5320673,35.4852885 82.7046635,34.6319231 81.3974519,34.6319231 C80.0902404,34.6319231 79.2363942,35.4852885 78.9964904,36.3655769 L74.4878365,52.0530769 L68.9652404,36.3126923 L68.9652404,36.2857692 C68.5652404,35.2718269 67.6580288,34.6319231 66.5907212,34.6319231 C65.1498558,34.6319231 64.0296635,35.7521154 64.0296635,37.1929808 C64.0296635,37.5131731 64.1094712,37.8867308 64.243125,38.2333654 L72.2734135,60.2703846 C72.6738942,61.2843269 73.580625,61.9247115 74.6479327,61.9247115 C75.7950481,61.9247115 76.8085096,61.1775962 77.1022596,60.0833654 L81.3705288,45.3833654 L85.6392788,60.0569231 C85.9594712,61.1506731 86.9734135,61.8977885 88.0940865,61.8977885 C89.1613942,61.8977885 90.0950481,61.2574038 90.4950481,60.2170192 L98.5253365,38.18 C98.6585096,37.8328846 98.7387981,37.4598077 98.7387981,37.1396154 C98.7387981,35.7521154 97.618125,34.6319231 96.2041827,34.6319231" id="Fill-13" fill="#FFFFFF"></path>
            <path d="M111.760144,57.4412019 C107.034183,57.4412019 104.95726,54.5085096 104.95726,48.2392788 C104.95726,42.0758173 107.034183,39.0854327 111.678413,39.0854327 C115.813029,39.0854327 117.548606,42.5277404 117.918798,43.2777404 L117.918798,50.6387981 L117.947644,50.6387981 C117.947644,55.0133173 115.918317,57.4412019 111.760144,57.4412019 M120.481298,20.9460096 C119.043317,20.9460096 117.947644,22.0662019 117.947644,23.5085096 L117.947644,36.6580288 C116.856298,35.3787019 114.370721,34.2825481 111.543798,34.2825481 C106.154375,34.2825481 99.8851442,36.7104327 99.8851442,48.2104327 C99.8851442,52.8022596 101.005337,56.3210096 103.115913,58.6960096 C105.168798,61.018125 108.183221,62.1912019 112.000529,62.1912019 C115.385144,62.1912019 118.000048,61.1772596 120.000529,59.2825481 C122.135144,57.2537019 123.043798,54.268125 123.043798,50.6142788 L123.043798,23.5085096 C123.014952,22.0662019 121.89476,20.9460096 120.481298,20.9460096" id="Fill-15" fill="#FFFFFF"></path>
            <g id="Group-19" transform="translate(125.480769, 34.481731)">
                <mask id="mask-8" fill="white">
                    <use xlink:href="#path-7"></use>
                </mask>
                <g id="Clip-18"></g>
                <path d="M21.8403365,0.150192308 C20.7201442,0.150192308 19.8927404,0.737211538 19.4662981,1.80403846 L12.5028365,18.8516346 L5.53985577,1.80403846 C5.11293269,0.737211538 4.25908654,0.150192308 3.16485577,0.150192308 C1.72447115,0.150192308 0.603798077,1.27038462 0.603798077,2.71125 C0.603798077,3.16509615 0.711009615,3.48528846 0.790817308,3.67134615 L0.817259615,3.75163462 L9.83504808,25.1751923 C7.70091346,30.4574038 6.58024038,33.1251923 2.44466346,33.1251923 C1.08408654,33.1251923 0.0167788462,34.1925 0.0167788462,35.5530769 C0.0167788462,36.9136538 1.08408654,37.9809615 2.44466346,37.9809615 C7.620625,37.9809615 10.901875,35.4194231 13.4100481,29.3900962 L24.1884135,3.75163462 L24.2417788,3.61846154 C24.3215865,3.43144231 24.4283173,3.13817308 24.4283173,2.65788462 C24.4013942,1.27038462 23.2812019,0.150192308 21.8403365,0.150192308" id="Fill-17" fill="#FFFFFF" mask="url(#mask-8)"></path>
            </g>
            <path d="M20.8361058,57.8426442 L11.6587019,45.5964904 L17.1279327,40.6075481 C18.141875,39.6738942 18.2221635,38.1003365 17.2880288,37.0859135 C16.354375,36.0724519 14.7798558,35.9926442 13.7663942,36.9258173 L5.06879808,44.8498558 L5.06879808,44.5561058 L5.06879808,23.3195673 C5.06879808,21.8791827 3.97552885,20.7585096 2.53466346,20.7585096 C1.09427885,20.7585096 4.80769231e-05,21.8791827 4.80769231e-05,23.3195673 L4.80769231e-05,59.2032212 C4.80769231e-05,60.6436058 1.12024038,61.7642788 2.53466346,61.7642788 C3.97552885,61.7642788 5.06879808,60.6436058 5.06879808,59.2032212 L5.06879808,51.5998558 L7.95004808,48.9585096 L16.8611058,60.830625 C17.3409135,61.4974519 18.1149519,61.8176442 18.8620673,61.8176442 C19.3957212,61.8176442 19.9029327,61.6575481 20.3562981,61.3109135 C21.4495673,60.5104327 21.6635096,58.9359135 20.8361058,57.8426442" id="Fill-20" fill="#FFFFFF"></path>
        </g>
        <g id="youtube" transform="translate(93.000000, 99.000000)"></g>
        <g id="Page-1-Copy-5" transform="translate(72.500000, 287.500000) scale(-1, 1) translate(-72.500000, -287.500000) translate(0.000000, 224.000000)" fill="#FFFFFF">
            <path d="M33.2172804,115.988402 C32.1830024,115.508892 30.8587874,115.883937 30.2992599,117.031335 C29.1632496,119.207967 27.8424257,121.400011 26.4351293,123.489304 C25.7721741,124.53395 25.9603787,125.953641 26.9946568,126.623242 C27.3846305,126.914373 27.7559532,127 28.215444,127 C28.978436,127 29.6396957,126.623242 30.0957954,125.953641 C31.6065195,123.780435 33.0138159,121.400011 34.2498629,118.933961 C34.7093536,117.887603 34.3346398,116.553538 33.2172804,115.988402 M36.6931328,100.592714 C35.4723456,100.489962 34.4380676,101.448982 34.3346398,102.680294 C34.1498262,105.06243 33.7768079,107.52848 33.0138159,109.99453 C32.639102,111.141928 33.402094,112.374953 34.5228445,112.749998 C34.8093904,112.854463 34.997595,112.854463 35.1824087,112.854463 C36.1336053,112.854463 36.9813742,112.184862 37.2526603,111.141928 C38.0156523,108.384747 38.5734842,105.627566 38.7616889,102.956012 C38.8634212,101.722987 37.91392,100.678341 36.6931328,100.592714 M34.7093536,97.3560235 C34.4380676,96.2086252 33.3020573,95.4551099 32.0812701,95.7462408 C29.7227771,96.3113773 27.4677118,96.6025082 25.2126466,96.6025082 L24.8413238,96.6025082 C23.6205366,96.6025082 22.5845631,97.5426898 22.5845631,98.7774273 C22.5845631,100.010452 23.5171088,101.053386 24.7395916,101.053386 L25.1126099,101.053386 C27.6559165,101.053386 30.2992599,100.781093 33.1138526,100.010452 C34.2498629,99.7364468 34.997595,98.5890485 34.7093536,97.3560235 M17.7861912,95.5561494 C15.802412,94.7872213 13.44731,93.5524838 11.378754,92.1310799 C10.3444759,91.4649039 8.93717957,91.6532828 8.27591984,92.6962164 C7.61296457,93.7425751 7.80116927,95.163979 8.8354473,95.830155 C11.1922448,97.4587756 13.8203283,98.8801794 16.2788581,99.7364468 C16.5501441,99.8220735 16.7349578,99.8220735 17.0231992,99.8220735 C17.9743959,99.8220735 18.8221647,99.2552245 19.0934508,98.3989571 C19.4664691,97.2686842 18.9069416,95.9346196 17.7861912,95.5561494 M48.6466741,90.1274143 C47.9854143,89.0844806 46.6628949,88.8104751 45.6269213,89.4612383 C43.3718561,90.8997675 41.2032633,92.1310799 39.0482348,93.0746866 C38.7616889,93.2613529 38.4734475,93.4685696 38.2852428,93.6569484 C37.7257153,91.0881463 36.8779464,88.6220962 35.6571592,86.3272997 C35.0976318,85.1970267 33.6750756,84.8202691 32.639102,85.3854056 C31.5217426,85.950542 31.1470288,87.3719459 31.7065562,88.4148795 C32.8273067,90.6086366 33.5902987,92.8863078 34.0650493,95.2650185 C34.2498629,96.4997561 35.3706134,97.2686842 36.589705,97.0648926 C37.1678834,96.9775533 37.6256786,96.6864224 37.91392,96.3113773 C38.2852428,97.0648926 39.0482348,97.5426898 39.8960037,97.5426898 C40.1689852,97.5426898 40.4572267,97.5426898 40.8285494,97.0648926 C43.1870425,96.0202464 45.54384,94.6998821 47.9854143,93.1774387 C49.0179968,92.5095501 49.3062383,91.173773 48.6466741,90.1274143 M6.02085461,87.3719459 C4.88484431,85.7621632 4.32531684,84.3407594 4.32531684,83.0049823 C4.32531684,82.6282246 4.42704911,82.251467 4.51013046,81.8747093 C4.88484431,80.624559 4.13880769,79.3915339 3.00279739,79.1175284 C1.78201019,78.7236454 0.559527463,79.4925735 0.271286043,80.624559 C0.0864724261,81.3951996 0,82.1487149 0,82.917643 C0,85.2809409 0.93424131,87.5586122 2.62977908,89.940748 C3.10283411,90.5230098 3.76578938,90.7970154 4.42704911,90.7970154 C4.88484431,90.7970154 5.25786261,90.7113886 5.54610404,90.5230098 C6.58038207,89.7523692 6.76519569,88.3309653 6.02085461,87.3719459 M30.5705459,79.7682916 C28.6037221,77.867378 26.2486202,76.1719686 23.6205366,74.8361915 C22.5845631,74.271055 21.2620436,74.6461001 20.7042117,75.7780856 C20.1260333,76.8227318 20.5007471,78.1585089 21.6367574,78.7236454 C23.8053502,79.7682916 25.8756019,81.2924475 27.4677118,82.8166034 C27.8424257,83.2961132 28.4189085,83.484492 28.978436,83.484492 C29.5379634,83.484492 30.0957954,83.1933611 30.5705459,82.917643 C31.4183148,82.0613756 31.4183148,80.624559 30.5705459,79.7682916 M15.3276614,72.1817626 C12.0400137,71.7022529 9.02026092,72.1817626 6.49390965,73.4987019 C5.46132715,73.9799241 4.98657657,75.3157012 5.54610404,76.4459742 C5.91742681,77.2149023 6.68211434,77.6789992 7.52988322,77.6789992 C7.90120599,77.6789992 8.17249204,77.5933725 8.37765211,77.4906204 C10.1562712,76.5487263 12.3282551,76.2575953 14.7698295,76.5487263 C15.9906167,76.7371051 17.0231992,75.8808377 17.2114039,74.6461001 C17.397913,73.4147877 16.5501441,72.3684289 15.3276614,72.1817626" id="Fill-1"></path>
            <path d="M53.4152622,89 C52.7077624,89 52.0039002,88.7144346 51.4982833,88.1415836 C50.6907515,87.1868319 50.8926344,85.7538442 51.9020493,84.9917631 C52.9114641,84.2279617 54.0209111,83.3695453 55.1303581,82.5094086 C56.1397729,81.7456072 57.6548046,81.8402222 58.4605177,82.7966942 C59.2698684,83.7497257 59.1680175,85.1809931 58.1586026,85.9465148 C57.0491557,86.8049312 55.8378579,87.7579626 54.7284109,88.5234843 C54.4246771,88.8107699 53.9190602,89 53.4152622,89" id="Fill-3"></path>
            <path d="M122.673356,49.6270863 C120.679439,50.5590295 118.287103,49.6819064 117.3733,47.6901062 C116.441221,45.6617592 117.316644,43.3044911 119.308734,42.3725479 C121.339204,41.4406047 123.696816,42.3177277 124.627067,44.3278013 C125.559146,46.3378749 124.683723,48.7134164 122.673356,49.6270863" id="Fill-5"></path>
            <path d="M126.15926,69.4612725 L123.960064,70.4842716 L109.321664,39.0436441 L111.519142,38.0393687 C120.300464,34.0222673 130.626378,37.8010661 134.681146,46.4991121 C138.734196,55.2141796 134.921683,65.4458732 126.15926,69.4612725 Z M105.43699,78.9423128 L90.800308,47.5374306 L98.9613879,43.7926751 L113.59807,75.1975572 L105.43699,78.9423128 Z M76.4368074,73.1719848 C73.1534761,66.1761005 75.0949541,57.9546598 80.6462065,53.069456 L94.614539,83.0275007 C87.2592584,84.0487976 79.6840582,80.1848907 76.4368074,73.1719848 Z M67.9991099,38.9074712 C64.0835097,37.4776554 62.004582,33.0009703 63.4306233,29.1200418 C64.8910271,25.2408154 69.3925069,23.1624761 73.3098253,24.6093135 L99.1486632,34.0392889 L81.230368,42.243708 C80.6118441,42.5160538 80.1994948,42.8564862 79.5964339,43.128832 L67.9991099,38.9074712 Z M96.8309165,13.8346303 C98.2741391,9.95370182 102.791082,7.87706463 106.710118,9.3068804 C110.745987,10.6856313 112.792271,15.0431651 111.263142,19.0943098 L108.050254,27.7583125 L93.6334913,22.498633 L96.8309165,13.8346303 Z M142.550145,42.7560586 C137.928397,32.8477758 127.722751,27.1114911 117.310932,27.6221396 L119.336598,22.1582007 C122.480761,13.6644142 118.048006,4.13230904 109.493476,1.00033164 C100.93551,-2.11462414 91.3157446,2.29397448 88.1544,10.7707394 L84.9415117,19.4194227 L76.2289147,16.2346782 C72.124321,14.7384782 67.60566,14.9069922 63.6024355,16.7453267 C59.5648486,18.5836613 56.5237725,21.8858549 55.0118251,25.9369995 C51.8676617,34.4307861 56.3004167,43.9645934 64.8549465,47.0948686 L71.6432468,49.5647052 C67.6228412,54.6354447 65.5782759,60.9862097 65.9047191,67.4374023 L61.1953465,80.1508475 L73.9627116,84.7126407 C81.5911737,91.9127844 93.1884977,94.2277242 103.308237,89.6148662 L129.612686,77.5465402 C142.910951,71.4698232 148.682123,55.9290875 142.550145,42.7560586 Z" id="Fill-7"></path>
        </g>
        <g id="Group-24-Copy" transform="translate(0.000000, 354.000000)">
            <g id="ic-ibooks">
                <rect id="placeholder" fill="#DA8080" opacity="0" x="0" y="0" width="62.4" height="62.4" rx="4.8"></rect>
                <mask id="mask-11" fill="white">
                    <use xlink:href="#path-10"></use>
                </mask>
                <g id="Mask">
                    <use fill="black" fill-opacity="1" filter="url(#filter-12)" xlink:href="#path-10"></use>
                    <use fill="url(#linearGradient-9)" fill-rule="evenodd" xlink:href="#path-10"></use>
                    <use fill-opacity="0.496263587" fill="#FFA200" fill-rule="evenodd" xlink:href="#path-10"></use>
                </g>
                <g id="Group-5" mask="url(#mask-11)">
                    <g transform="translate(22.800000, 46.200000) scale(-1, 1) translate(-22.800000, -46.200000) translate(16.800000, 44.400000)"></g>
                </g>
            </g>
            <g id="Group-23" transform="translate(15.000000, 16.200000)">
                <g id="movie47">
                    <g id="Fill-1">
                        <use fill="black" fill-opacity="1" filter="url(#filter-15)" xlink:href="#path-14"></use>
                        <use fill="url(#linearGradient-13)" fill-rule="evenodd" xlink:href="#path-14"></use>
                        <path stroke-opacity="0.129387455" stroke="#000000" stroke-width="0.6" d="M29.5504588,28.5573479 L26.4220666,28.5573479 L26.4220666,29.7875977 L5.91916949,29.7875977 L5.91916949,28.5573479 L2.79077738,28.5573479 L2.79077738,29.7875977 L1.24538869,29.7875977 C0.393300802,29.7875977 -0.3,29.1027246 -0.3,28.2573479 L-0.3,1.23024979 C-0.3,0.384873063 0.393300802,-0.3 1.24538869,-0.3 L2.79077738,-0.3 L2.79077738,2.15282012 L5.91916949,2.15282012 L5.91916949,-0.3 L26.4220666,-0.3 L26.4220666,2.15282012 L29.5504588,2.15282012 L29.5504588,-0.3 L31.0958474,-0.3 C31.9468603,-0.3 32.6412361,0.385344216 32.6412361,1.23024979 L32.6412361,28.2573479 C32.6412361,29.1022534 31.9468603,29.7875977 31.0958474,29.7875977 L29.5504588,29.7875977 L29.5504588,28.5573479 Z M2.79077738,21.1835286 L2.79077738,24.274278 L5.91916949,24.274278 L5.91916949,21.1835286 L2.79077738,21.1835286 Z M2.79077738,13.8173888 L2.79077738,16.9004587 L5.91916949,16.9004587 L5.91916949,13.8173888 L2.79077738,13.8173888 Z M2.79077738,6.44356949 L2.79077738,9.5266394 L5.91916949,9.5266394 L5.91916949,6.44356949 L2.79077738,6.44356949 Z M21.7261478,15.2909763 L21.7425487,15.2821915 C21.955744,15.1763709 22.0859006,14.9688922 22.0859006,14.7399591 C22.0859006,14.5143934 21.9573743,14.312036 21.7261478,14.1966214 L13.6552486,9.54509475 C13.4592945,9.44989536 13.2198984,9.46012652 13.0286262,9.57454346 C12.8481084,9.68194281 12.738339,9.87605849 12.738339,10.0846693 L12.738339,19.4029283 C12.738339,19.6115392 12.8481084,19.8056549 13.0266498,19.9118885 C13.1344189,19.9748949 13.2518391,20.0075689 13.3681048,20.0075689 C13.4627536,20.0075689 13.5608845,19.984617 13.6365631,19.9524096 L21.7261478,15.2909763 Z M26.4220666,21.1835286 L26.4220666,24.274278 L29.5504588,24.274278 L29.5504588,21.1835286 L26.4220666,21.1835286 Z M26.4220666,13.8173888 L26.4220666,16.9004587 L29.5504588,16.9004587 L29.5504588,13.8173888 L26.4220666,13.8173888 Z M26.4220666,6.44356949 L26.4220666,9.5266394 L29.5504588,9.5266394 L29.5504588,6.44356949 L26.4220666,6.44356949 Z"></path>
                    </g>
                </g>
            </g>
        </g>
        <g id="Group-24-Copy-2" transform="translate(63.000000, 354.000000)">
            <g id="ic-ibooks">
                <rect id="placeholder" fill="#DA8080" opacity="0" x="0" y="0" width="62.4" height="62.4" rx="4.8"></rect>
                <mask id="mask-18" fill="white">
                    <use xlink:href="#path-17"></use>
                </mask>
                <g id="Mask">
                    <use fill="black" fill-opacity="1" filter="url(#filter-19)" xlink:href="#path-17"></use>
                    <use fill="url(#linearGradient-16)" fill-rule="evenodd" xlink:href="#path-17"></use>
                    <use fill-opacity="0.5" fill="#79DE2C" fill-rule="evenodd" xlink:href="#path-17"></use>
                </g>
                <g id="Chat" mask="url(#mask-18)">
                    <g transform="translate(13.900000, 14.564844)" id="speech-bubble20">
                        <g transform="translate(-0.000000, 0.000000)">
                            <g id="Group-16" transform="translate(0.066125, 0.503250)">
                                <g id="Fill-1">
                                    <use fill="black" fill-opacity="1" filter="url(#filter-22)" xlink:href="#path-21"></use>
                                    <use fill="url(#linearGradient-20)" fill-rule="evenodd" xlink:href="#path-21"></use>
                                    <path stroke-opacity="0.129387455" stroke="#000000" stroke-width="0.6" d="M21.5517645,26.8760392 C14.2676471,26.6286104 8.45027616,20.6607267 8.45027616,13.3467012 C8.45027616,5.86966681 14.5271097,-0.192054 22.021718,-0.192054 C29.5156201,-0.192054 35.5922465,5.86893204 35.5956715,13.3467012 C35.5956715,17.2278964 33.9517728,20.8411842 31.1322927,23.3827103 L21.5517645,32.9402453 L21.5517645,26.8760392 Z"></path>
                                </g>
                                <g id="Fill-2">
                                    <use fill="black" fill-opacity="1" filter="url(#filter-24)" xlink:href="#path-23"></use>
                                    <use fill="url(#linearGradient-20)" fill-rule="evenodd" xlink:href="#path-23"></use>
                                    <path stroke-opacity="0.129387455" stroke="#000000" stroke-width="0.6" d="M11.1238615,25.1471233 L12.4995099,23.7844894 L12.7089991,23.959324 C13.3895047,24.5272575 14.1132424,25.0299322 14.8778019,25.4642405 L15.2223615,25.6599678 L7.85929061,32.9353849 L7.85929061,27.0464725 C3.21819137,26.2215428 -0.258375,22.1758544 -0.258375,17.4557428 C-0.258375,12.5609257 3.43336082,8.43866045 8.30266245,7.80333146 L8.806696,7.73756698 L8.62066228,8.21060634 C8.26821985,9.1067833 8.01153626,10.0373579 7.85384897,10.9958757 L7.82364974,11.1794447 L7.64578965,11.2339916 C4.90977911,12.0730837 3.00286832,14.587394 3.00286832,17.4557428 C3.00286832,21.0019165 5.92187826,23.9236857 9.51154721,23.9661573 L11.1238615,23.9863081 L11.1238615,25.1471233 Z"></path>
                                </g>
                            </g>
                        </g>
                    </g>
                </g>
                <g id="Group-5" mask="url(#mask-18)">
                    <g transform="translate(22.800000, 46.200000) scale(-1, 1) translate(-22.800000, -46.200000) translate(16.800000, 44.400000)"></g>
                </g>
            </g>
        </g>
        <g id="Atom/Icon/IconSemana" transform="translate(0.000000, 444.000000)">
            <g id="Group">
                <circle id="Oval" fill="#FF8B08" cx="15" cy="15" r="15"></circle>
                <text id="event" font-family="MaterialIcons-Regular, Material Icons" font-size="18" font-weight="normal" fill="#FFFFFF">
                    <tspan x="6" y="24">event</tspan>
                </text>
            </g>
        </g>
        <g id="Group" transform="translate(0.000000, 480.000000)">
            <g id="Page-1-Copy-3" transform="translate(74.000000, 0.460938)">
                <path d="M31.1315893,22.8620162 C30.3800165,23.2081787 29.4845254,22.8806557 29.1383222,22.1297494 C28.7915859,21.3735176 29.1193996,20.486809 29.8683073,20.1379838 C30.625477,19.7918213 31.5153712,20.1193443 31.8618409,20.8702506 C32.2083107,21.6264824 31.880497,22.5158537 31.1315893,22.8620162" id="Fill-1" fill="#545B6C"></path>
                <g id="Group-5">
                    <mask id="mask-26" fill="white">
                        <use xlink:href="#path-25"></use>
                    </mask>
                    <g id="Clip-4"></g>
                    <path d="M33.1140876,32.5356736 L32.1085401,33.0086736 L25.3885401,18.4224593 L26.3971533,17.9586736 C30.4251679,16.0881736 35.1681022,17.8419593 37.0259124,21.8808879 C38.889854,25.9228879 37.1424088,30.6774593 33.1140876,32.5356736 Z M23.604,36.9401021 L16.8870657,22.3631021 L20.6367153,20.6246736 L27.3567153,35.204745 L23.604,36.9401021 Z M10.2930657,34.258745 C8.79056934,31.0091736 9.68268613,27.1944593 12.2305839,24.927745 L18.6348175,38.8321021 C15.2625547,39.311245 11.7888175,37.5144593 10.2930657,34.258745 Z M6.42722628,18.3579593 C4.62735766,17.6945307 3.67116788,15.618245 4.3299854,13.8153164 C4.99861314,12.0123879 7.06458394,11.0541021 8.86414599,11.7206021 L20.7164234,16.0973879 L12.4972993,19.9059593 C12.2149489,20.0288164 12.0187445,20.1885307 11.7431387,20.3206021 L6.42722628,18.3579593 Z M19.6584526,6.72031643 C20.3178832,4.91738786 22.3930511,3.95910214 24.1926131,4.61945929 C26.0415328,5.26138786 26.9793285,7.27931643 26.2806569,9.16210214 L24.8088175,13.1826021 L18.1872263,10.7408164 L19.6584526,6.72031643 Z M40.6372993,20.1455307 C38.5189051,15.5445307 33.8345255,12.8846736 29.0520438,13.1181021 L29.990146,10.5811021 C31.4340876,6.64045929 29.3954015,2.21453071 25.4682482,0.761745 C21.5441606,-0.684897857 17.1264964,1.363745 15.6764234,5.29517357 L14.2045839,9.31567357 L10.1980292,7.83217357 C8.31875912,7.14110214 6.2460438,7.21481643 4.40386861,8.071745 C2.55218978,8.92253071 1.16036496,10.458245 0.464452555,12.3379593 C-0.979489051,16.2786021 1.05889051,20.7045307 4.9829781,22.1573164 L8.0949635,23.3060307 C6.25248175,25.6526021 5.30824818,28.604245 5.46153285,31.5988879 L3.30021898,37.4991021 L9.16182482,39.6153164 C12.6659124,42.9601021 17.9818248,44.0351021 22.6263504,41.891245 L34.7048759,36.2951021 C40.8059124,33.4663164 43.4516058,26.2576736 40.6372993,20.1455307 Z" id="Fill-3" fill="#545B6C" mask="url(#mask-26)"></path>
                </g>
            </g>
            <path d="M0.0078125,73.5338638 C17.3550737,54.0008891 50.1023134,54.2968854 63.1307257,66.4327326 C76.159138,78.5685798 65.7731702,91.8467225 56.6987504,88.3142223 C47.6243307,84.7817222 43.4699436,53.0600935 79.3654514,37.878125" id="Path-3" stroke="#545B6C" stroke-width="2" stroke-dasharray="7"></path>
        </g>
        <g id="Group-14-Copy" transform="translate(0.000000, 580.000000)">
            <g id="user-9" transform="translate(0.456989, 0.612666)">
                <path d="M49.1983054,9.14448709 C49.1983054,13.1797862 45.9610903,16.4514741 41.9673534,16.4514741 C37.9743338,16.4514741 34.7371187,13.1797862 34.7371187,9.14448709 C34.7371187,5.10797971 37.9743338,1.83629188 41.9673534,1.83629188 C45.9610903,1.83629188 49.1983054,5.10797971 49.1983054,9.14448709 Z" id="Fill-1" fill="#FF8B08"></path>
                <path d="M82.1749089,66.4247597 C82.1749089,70.4600588 78.9376938,73.7317467 74.9446742,73.7317467 C70.9509373,73.7317467 67.7137221,70.4600588 67.7137221,66.4247597 C67.7137221,62.3882523 70.9509373,59.1165645 74.9446742,59.1165645 C78.9376938,59.1165645 82.1749089,62.3882523 82.1749089,66.4247597 Z" id="Fill-2" fill="#FF8B08"></path>
                <g id="Group-6">
                    <mask id="mask-28" fill="white">
                        <use xlink:href="#path-27"></use>
                    </mask>
                    <g id="Clip-4"></g>
                    <path d="M16.2207455,66.4247597 C16.2207455,70.4600588 12.9835304,73.7317467 8.9907499,73.7317467 C4.99677388,73.7317467 1.75955876,70.4600588 1.75955876,66.4247597 C1.75955876,62.3882523 4.99677388,59.1165645 8.9907499,59.1165645 C12.9835304,59.1165645 16.2207455,62.3882523 16.2207455,66.4247597 Z" id="Fill-3" fill="#FF8B08" mask="url(#mask-28)"></path>
                    <path d="M83.9158176,28.3790344 C83.9158176,23.3723057 79.8986486,19.3126 74.9446742,19.3126 C72.2473536,19.3126 69.8367174,20.5114214 68.1919281,22.4247994 L50.4600518,12.0442769 C50.7663427,11.1351928 50.9382577,10.1497476 50.9382577,9.12467186 C50.9382577,4.11794315 46.9210887,0.0579957957 41.9673534,0.0579957957 C37.0133789,0.0579957957 32.9962099,4.11794315 32.9962099,9.12467186 C32.9962099,10.1497476 33.168125,11.1163441 33.4744159,12.0244616 L15.7425396,22.4057091 C14.0977502,20.5114214 11.6871141,19.2937513 8.9907499,19.2937513 C4.03581904,19.2937513 0.0186500317,23.3524904 0.0186500317,28.3601858 C0.0186500317,32.6900552 3.04115068,36.3242168 7.05831969,37.2144522 L7.07792613,57.5516446 C3.04115068,58.4409135 0,62.075075 0,66.4049445 C0,71.4123981 4.01716901,75.4713789 8.97114345,75.4713789 C11.6106011,75.4713789 13.9827417,74.3121879 15.627531,72.4754127 L33.4175094,82.8569018 C33.1298685,83.745929 32.9775599,84.6738618 32.9775599,85.659307 C32.9775599,90.6670023 36.9937725,94.7269497 41.9484642,94.7269497 C46.9024387,94.7269497 50.9196077,90.6670023 50.9196077,85.659307 C50.9196077,84.6738618 50.7663427,83.745929 50.4796582,82.8569018 L68.2686801,72.4754127 C69.9132304,74.3121879 72.28561,75.4713789 74.9250677,75.4713789 C79.8790422,75.4713789 83.8962112,71.4123981 83.8962112,66.4049445 C83.8962112,62.0163543 80.7785475,58.3246802 76.6662156,57.5129807 L76.6662156,37.2531161 C80.798154,36.4602652 83.9158176,32.7871982 83.9158176,28.3790344 Z M74.9446742,22.8116797 C77.9858249,22.8116797 80.4533675,25.3054989 80.4533675,28.3790344 C80.4533675,31.4535365 77.9858249,33.9463891 74.9446742,33.9463891 C71.9028062,33.9463891 69.4350244,31.4535365 69.4350244,28.3790344 C69.4350244,25.3054989 71.9224126,22.8116797 74.9446742,22.8116797 Z M41.9673534,3.57616575 C45.008265,3.57616575 47.4760467,6.06998497 47.4760467,9.14448709 C47.4760467,10.0912685 47.2472252,10.9802957 46.8259257,11.7731465 C46.7876693,11.812052 46.7690192,11.8507159 46.7305237,11.9082284 L46.6726607,12.0244616 C45.7162489,13.629012 43.9566901,14.7118418 41.9673534,14.7118418 C38.9262027,14.7118418 36.4584209,12.217781 36.4584209,9.14448709 C36.4584209,6.06998497 38.9262027,3.57616575 41.9673534,3.57616575 Z M3.48110015,28.3790344 C3.48110015,25.3054989 5.9486428,22.8116797 8.9907499,22.8116797 C12.0316615,22.8116797 14.4994432,25.3054989 14.4994432,28.3790344 C14.4994432,31.4535365 12.0316615,33.9463891 8.9907499,33.9463891 C5.9486428,33.9463891 3.48110015,31.4535365 3.48110015,28.3790344 Z M8.9907499,71.9921144 C5.9486428,71.9921144 3.48110015,69.4980536 3.48110015,66.4247597 C3.48110015,63.3512242 5.9486428,60.8574049 8.9907499,60.8574049 C12.0316615,60.8574049 14.4994432,63.3512242 14.4994432,66.4247597 C14.4798368,69.4980536 12.012055,71.9921144 8.9907499,71.9921144 Z M41.9673534,91.2276283 C38.9262027,91.2276283 36.4584209,88.7338091 36.4584209,85.659307 C36.4584209,82.5860131 38.9262027,80.0919523 41.9673534,80.0919523 C45.008265,80.0919523 47.4760467,82.5860131 47.4760467,85.659307 C47.4760467,88.7338091 45.008265,91.2276283 41.9673534,91.2276283 Z M48.795656,79.8022149 C47.1508667,77.8501731 44.7029305,76.5928726 41.9673534,76.5928726 C39.2315372,76.5928726 36.783601,77.8303579 35.1388116,79.8022149 L17.4255854,69.4792049 C17.7701328,68.531457 17.9616542,67.4875326 17.9616542,66.4247597 C17.9616542,61.9588418 14.7674777,58.2473525 10.5587872,57.4931655 L10.5391807,37.2908134 C14.7478712,36.5564416 17.9616542,32.8261037 17.9616542,28.3601858 C17.9616542,27.3351101 17.7887828,26.3496648 17.4834483,25.4405807 L35.2153246,15.0590917 C36.8601139,16.9734362 39.2894001,18.1722576 41.9869598,18.1722576 C44.683324,18.1722576 47.0939602,16.9734362 48.7387495,15.0590917 L66.4706258,25.4405807 C66.1643349,26.3496648 65.9924199,27.3351101 65.9924199,28.3601858 C65.9924199,32.7485343 69.1100835,36.44045 73.2224155,37.2531161 L73.2224155,57.5129807 C69.1100835,58.3246802 65.9924199,61.9975056 65.9924199,66.4049445 C65.9924199,67.4875326 66.1839413,68.5126083 66.5275323,69.4593897 L48.795656,79.8022149 Z M80.4533675,66.4247597 C80.4533675,69.4980536 77.9858249,71.9921144 74.9446742,71.9921144 C71.9028062,71.9921144 69.4350244,69.4980536 69.4350244,66.4247597 C69.4350244,63.3512242 71.9028062,60.8574049 74.9446742,60.8574049 C77.9858249,60.8574049 80.4533675,63.3512242 80.4533675,66.4247597 Z" id="Fill-5" fill="#000000" mask="url(#mask-28)"></path>
                </g>
                <path d="M50.3263932,54.3998147 L50.3263932,48.078273 C51.3782072,47.0539223 51.9711826,45.6429329 51.9711826,44.1343173 L51.9711826,35.8409185 C51.9711826,30.756862 47.8775006,26.6205535 42.8470132,26.6205535 L41.0874544,26.6205535 C36.0569671,26.6205535 31.9632851,30.756862 31.9632851,35.8409185 L31.9632851,44.1343173 C31.9632851,45.6429329 32.5749105,47.0539223 33.6080744,48.078273 L33.6080744,54.3998147 C31.6184986,55.4437391 26.8364392,58.0924554 22.3609098,61.8041863 C21.6144303,62.4223248 21.5192673,63.5249699 22.1311318,64.2791569 C22.7437137,65.0323773 23.8337841,65.1295203 24.5800245,64.5104151 C29.5339989,60.3929553 34.8903837,57.6666696 35.9223521,57.1645227 C36.6499424,56.7974576 37.0898919,56.0819345 37.0898919,55.2501781 L37.0898919,47.2474832 C37.0898919,46.667042 36.8032074,46.106416 36.3250015,45.7975883 C35.7702826,45.4305233 35.4441461,44.8111765 35.4441461,44.1343173 L35.4441461,35.8409185 C35.4441461,32.6900552 37.9884408,30.1186666 41.1070609,30.1186666 L42.8666197,30.1186666 C45.9842833,30.1186666 48.528578,32.6900552 48.528578,35.8409185 L48.528578,44.1343173 C48.528578,44.7923279 48.2036371,45.4107081 47.6486791,45.7975883 C47.1704731,46.1262312 46.8828322,46.667042 46.8828322,47.2474832 L46.8828322,55.2501781 C46.8828322,56.0630858 47.3423882,56.7974576 48.0690221,57.1645227 C49.1019469,57.6666696 54.4585708,60.4127705 59.4123061,64.5104151 C59.7374861,64.7813038 60.12029,64.9161441 60.5023765,64.9161441 C61.0001889,64.9161441 61.4970449,64.7039761 61.8418314,64.2791569 C62.4534568,63.5249699 62.3386874,62.4223248 61.6120534,61.8041863 C57.0980285,58.0924554 52.315969,55.4248904 50.3263932,54.3998147 Z" id="Fill-7" fill="#000000"></path>
            </g>
        </g>
        <g id="Group-15-Copy" transform="translate(0.000000, 690.000000)">
            <g id="people" transform="translate(0.500000, 0.256104)">
                <path d="M39.9259771,19.1219528 L39.964375,19.1219528 C47.7210065,19.0451569 46.5875462,8.67794292 46.5875462,8.67794292 C46.2810823,1.74734797 40.5017067,1.80446496 39.9259771,1.82414392 C39.3495274,1.80446496 33.5711118,1.74734797 33.244729,8.65922391 C33.244729,8.65922391 32.1115087,19.0264379 39.8875791,19.1032338 C39.8875791,19.1219528 39.9062981,19.1219528 39.9259771,19.1219528 Z" id="Fill-1" fill="#FF8B08"></path>
                <g id="Group-7" transform="translate(0.000000, 5.519709)">
                    <mask id="mask-30" fill="white">
                        <use xlink:href="#path-29"></use>
                    </mask>
                    <g id="Clip-3"></g>
                    <path d="M39.9259771,26.484765 L44.9366731,19.5728891 C44.9366731,19.5728891 48.4690471,20.9940942 51.3488954,23.124942 C52.097896,23.6817127 52.4437177,24.0080955 53.1159223,24.6803001 C54.7087184,26.2738161 54.0374738,35.5087697 53.1159223,38.8873118 C52.1943709,42.2668138 49.4870735,47.123678 49.4870735,47.123678 C48.9490218,48.3526532 48.60392,49.6773834 48.4690471,51.0018737 L45.0134691,84.8878489 C44.8982752,85.9632322 43.9964027,86.7890287 42.9212593,86.7890287 L36.9309348,86.7890287 C35.8555515,86.7890287 34.934,85.9632322 34.838485,84.8878489 L31.3821871,51.0018737 C31.2480341,49.6586644 30.9022124,48.3526532 30.3648807,47.123678 C30.3648807,47.123678 27.6575832,42.2855328 26.7360318,38.8873118 C25.8144803,35.5087697 25.1425157,26.2738161 26.7360318,24.6803001 C27.4082364,24.0080955 27.7540582,23.6817127 28.5023388,23.124942 C31.3821871,21.0128132 34.915281,19.5728891 34.915281,19.5728891 L39.9259771,26.484765 Z" id="Fill-2" fill="#FF8B08" mask="url(#mask-30)"></path>
                    <path d="M0.951549881,42.3239308 C1.81574436,45.4728049 4.12010299,49.7157814 4.46496483,50.3683071 C4.88782255,51.3479355 5.15684838,52.3650019 5.25260334,53.4214262 L8.49699246,85.2151916 C8.68922233,87.1154115 10.2829784,88.5553357 12.2028773,88.5553357 L17.808742,88.5553357 C19.7286409,88.5553357 21.3223969,87.1154115 21.5143868,85.2151916 L24.7590159,53.4214262 C24.8742099,52.3462829 25.1425157,51.2896185 25.5838525,50.3109501 C25.9683122,49.4280366 25.5651335,48.4097702 24.700939,48.0265104 C23.8177855,47.6420506 22.8007191,48.0452294 22.4162593,48.9094239 C21.8407696,50.2341541 21.4563099,51.6356803 21.3223969,53.0756045 L18.0777678,84.8691299 C18.0580889,84.9845638 17.9625739,85.0800788 17.84714,85.0800788 L12.2412752,85.0800788 C12.1258413,85.0800788 12.0106474,84.9845638 12.0106474,84.8691299 L8.72762031,53.0568854 C8.5740284,51.6169613 8.20924761,50.2154351 7.63279797,48.8897449 C7.61407896,48.8326279 7.59511996,48.79423 7.55672198,48.737113 C7.53704302,48.698715 5.11845041,44.3403046 4.31137292,41.4023793 C3.42821943,38.1195922 3.17887257,30.9780484 3.90819415,29.7104351 C4.48488378,29.1339855 4.73423064,28.9043176 5.3293993,28.4627408 C6.84611941,27.3491995 8.59274741,26.446367 9.72596772,25.9092753 L13.6044034,31.2461142 C13.9305463,31.687691 14.448919,31.9567168 15.0056896,31.9567168 C15.5627003,31.9567168 16.081073,31.687691 16.4072158,31.2461142 L21.1104881,24.776775 C21.6672588,24.0080955 21.4947079,22.9139931 20.7269883,22.3385034 C19.9592687,21.7814927 18.8642064,21.9540437 18.2887167,22.7217632 L14.9860107,27.2524846 L11.7229025,22.7414422 C11.2616468,22.0881966 10.3981723,21.8585287 9.66789078,22.1462735 C9.53397784,22.2033905 6.11679782,23.5861977 3.27534748,25.6786475 C2.46826999,26.2738161 2.08501018,26.6385969 1.41280559,27.3105615 C-1.04442499,29.7677921 0.318703214,39.9821341 0.951549881,42.3239308 Z" id="Fill-4" fill="#000000" mask="url(#mask-30)"></path>
                    <path d="M14.8520977,19.8805529 L15.1782405,19.8805529 C17.4055632,19.8231959 19.2870641,19.0170784 20.6305134,17.5003582 C23.4916427,14.2744482 23.0884639,8.89921127 23.011668,8.22700668 C22.7239231,2.29379918 18.5961405,0.201589382 15.1595215,0.201589382 L14.8520977,0.201589382 C11.4152387,0.201589382 7.30641516,2.31347815 6.99995131,8.22700668 C6.94187436,8.89921127 6.51997659,14.2744482 9.38014594,17.5003582 C10.7432741,19.0170784 12.6245351,19.8419149 14.8520977,19.8805529 Z M10.4749683,8.53347053 L10.4749683,8.41923655 C10.6662382,4.271775 13.2967396,3.65788734 14.8520977,3.65788734 L15.1398426,3.65788734 C16.6949607,3.65788734 19.3254621,4.271775 19.517692,8.41923655 L19.517692,8.51475152 C19.6518449,9.74372679 19.6134469,13.3332177 17.9812929,15.1772806 C17.2706903,15.9833981 16.2920219,16.3865769 15.0056896,16.3865769 L14.9672917,16.3865769 C13.6811994,16.3668979 12.701571,15.9833981 11.9909684,15.1772806 C10.3784934,13.3528967 10.3597743,9.7624458 10.4749683,8.53347053 Z" id="Fill-5" fill="#000000" mask="url(#mask-30)"></path>
                    <path d="M55.1699741,48.0068314 C54.2868207,48.3910512 53.8836419,49.4280366 54.2868207,50.2912711 C54.7283974,51.2896185 54.9974232,52.3266039 55.1126172,53.4017473 L58.3572463,85.1955127 C58.5485162,87.0966925 60.1420323,88.5366167 62.0619311,88.5366167 L67.6680359,88.5366167 C69.5879347,88.5366167 71.1814508,87.0966925 71.3736807,85.1955127 L74.6183098,53.4017473 C74.7335037,52.3462829 74.9828506,51.3282565 75.4057083,50.3493481 C75.7515301,49.7157814 78.0746077,45.4728049 78.9193632,42.3052117 C79.5529299,39.9624551 80.9347771,29.7490731 78.4777865,27.2908826 C77.8055819,26.6198779 77.4211222,26.2541372 76.6150046,25.6599285 C73.7735543,23.5665187 70.3753333,22.1846715 70.2215014,22.1265946 C69.4734608,21.8201307 68.6279853,22.0694776 68.1676895,22.7217632 L64.8649835,27.2524846 L61.5435584,22.7414422 C60.9867878,21.9540437 59.8926854,21.8004517 59.1052869,22.3572224 C58.3375673,22.9139931 58.1650164,24.0080955 58.7220271,24.795494 L63.4250593,31.2657932 C63.7521621,31.7073699 64.2698148,31.9763958 64.8265855,31.9763958 C65.3833562,31.9763958 65.9017289,31.7073699 66.2281117,31.2657932 L70.1063074,25.9279943 C71.2397677,26.466046 72.9861557,27.3679185 74.5028759,28.4814599 C75.0795655,28.9043176 75.3289124,29.1536644 75.924081,29.7293941 C76.6534026,30.9967674 76.4040557,38.1392712 75.5211422,41.4220583 C74.7147847,44.3592636 72.2952321,48.717434 72.2765131,48.755832 C72.2568342,48.79423 72.2184362,48.851347 72.1997172,48.9094239 C71.6230275,50.2341541 71.2397677,51.6356803 71.1046548,53.0756045 L67.8602657,84.8691299 C67.8415467,84.9845638 67.7448318,85.0800788 67.6296379,85.0800788 L62.0235332,85.0800788 C61.9083392,85.0800788 61.7938653,84.9845638 61.7938653,84.8691299 L58.5485162,53.0756045 C58.3956442,51.6356803 58.0301435,50.2341541 57.4544138,48.9094239 C57.0701941,48.0068314 56.0528876,47.6233316 55.1699741,48.0068314 Z" id="Fill-6" fill="#000000" mask="url(#mask-30)"></path>
                </g>
                <path d="M64.6737136,25.4002621 L65.0000964,25.4002621 C67.2264591,25.3616242 69.10796,24.5367876 70.4718082,23.0200675 C73.3319775,19.7941574 72.9290388,14.4189205 72.8520028,13.7467159 C72.564258,7.81350846 68.4554344,5.72129865 65.0000964,5.72129865 L64.6924326,5.72129865 C61.2558136,5.72129865 57.14699,7.83318742 56.8405262,13.7467159 C56.7822092,14.4189205 56.3605514,19.7941574 59.2207208,23.0200675 C60.56489,24.5367876 62.4463909,25.3429052 64.6737136,25.4002621 Z M60.2958642,14.0531798 L60.2958642,13.9389458 C60.488094,9.79148427 63.1185955,9.17759661 64.6737136,9.17759661 L64.9616984,9.17759661 C66.5168165,9.17759661 69.146358,9.79148427 69.3385879,13.9389458 L69.3385879,14.0344608 C69.4734608,15.2634361 69.4350628,18.852927 67.8029088,20.6969899 C67.0923062,21.5031074 66.1136377,21.8866072 64.8265855,21.9062862 L64.7881875,21.9062862 C63.5018553,21.8866072 62.5231868,21.5031074 61.8125843,20.6969899 C60.2003492,18.872606 60.1806702,15.2821551 60.2958642,14.0531798 Z" id="Fill-8" fill="#000000"></path>
                <path d="M25.5070565,28.9707941 C22.915913,31.5628976 24.3745562,42.3716882 25.0654798,44.8682767 C25.9870312,48.2280998 28.4449818,52.7588211 28.8097626,53.4111068 C29.2700583,54.4677711 29.5587631,55.5616335 29.673957,56.6950938 L33.129535,90.581069 C33.3217649,92.5580849 34.972638,94.036647 36.9693328,94.036647 L42.9399783,94.036647 C44.9179541,94.036647 46.5688272,92.5393659 46.7797761,90.581069 L50.236074,56.6950938 C50.350548,55.5616335 50.6392528,54.4480922 51.0995485,53.4111068 C51.4640893,52.7398621 53.9222799,48.2280998 54.8435913,44.8682767 C55.5157959,42.3716882 56.9941181,31.5628976 54.4022546,28.9707941 C53.691652,28.2611515 53.2884732,27.8769317 52.4437177,27.2431251 C49.4289965,25.0167623 45.8011076,23.5571592 45.6472757,23.4803633 C44.8982752,23.1726995 44.0535197,23.4230063 43.5932239,24.0755319 L39.9259771,29.04783 L36.3168072,24.0755319 C35.8555515,23.4230063 34.991357,23.1923784 34.2620354,23.4803633 C34.1082035,23.5384402 30.4990336,25.0167623 27.4653534,27.2431251 C26.6208379,27.8769317 26.1989401,28.2611515 25.5070565,28.9707941 Z M28.003645,31.3903466 C28.6372117,30.75678 28.9052775,30.5074331 29.5390841,30.0461774 C31.1899572,28.8181621 33.1098561,27.8385337 34.3388313,27.262804 L38.5244509,33.0225007 C38.8508337,33.4640774 39.3692064,33.7321433 39.9259771,33.7321433 C40.4829877,33.7321433 41.0013604,33.4640774 41.3275032,33.0225007 L45.5131228,27.262804 C46.7226591,27.8385337 48.6425579,28.8181621 50.31287,30.0461774 C50.9457166,30.5074331 51.2147425,30.75678 51.8485491,31.3903466 C52.6546666,32.6963579 52.4053198,40.3946724 51.4256914,43.9467253 C50.5624568,47.0955994 47.9890724,51.7415147 47.9506744,51.7799127 C47.9319554,51.8185507 47.8933174,51.8756677 47.8745984,51.9327847 C47.2597508,53.3352708 46.856572,54.812633 46.7027401,56.349032 L43.2474021,90.2352472 C43.2277232,90.4272371 43.0748512,90.56139 42.8828613,90.56139 L36.9112558,90.56139 C36.7199859,90.56139 36.566154,90.4272371 36.5464751,90.2352472 L33.0911371,56.349032 C32.9373052,54.8323119 32.5538054,53.3352708 31.9202387,51.9327847 C31.9005598,51.8756677 31.8818408,51.8372697 31.8434428,51.7799127 C31.8235238,51.7415147 29.2316603,47.0759205 28.3681858,43.9270463 C27.4466344,40.3946724 27.1972875,32.6963579 28.003645,31.3903466 Z" id="Fill-9" fill="#000000"></path>
                <path d="M39.7534261,20.8498618 L40.098528,20.8498618 C42.4796826,20.8112239 44.3995814,19.9667083 45.8395056,18.3345543 C48.8729458,14.9372932 48.4119301,9.21503464 48.3545731,8.52411103 C48.0471493,2.28443968 43.7273768,0.0767959551 40.098528,0.0767959551 L39.7534261,0.0767959551 C36.1432963,0.0767959551 31.8048048,2.28443968 31.497381,8.52411103 C31.440264,9.21503464 30.9790083,14.9176143 34.0126885,18.3158353 C35.4526127,19.9479893 37.3912306,20.7925048 39.7534261,20.8498618 Z M34.972638,8.85049384 L34.972638,8.73505992 C35.1833469,4.05074664 38.389578,3.55181292 39.7534261,3.55181292 L40.079809,3.55181292 C41.4429372,3.55181292 44.6489283,4.05074664 44.8598772,8.73505992 L44.8598772,8.83153483 C44.9947501,10.1562651 44.9750711,14.0344608 43.2090041,16.0114767 C42.4216056,16.8946301 41.3462223,17.3371668 39.9446961,17.3371668 L39.8875791,17.3371668 C38.4860529,17.3174879 37.4109095,16.8946301 36.623271,16.0114767 C34.857204,14.0531798 34.838485,10.1749841 34.972638,8.85049384 Z" id="Fill-10" fill="#000000"></path>
            </g>
        </g>
        <g id="Group-16-Copy" transform="translate(0.000000, 790.000000)">
            <g id="search" transform="translate(0.000000, 0.335052)">
                <path d="M68.8461538,73.6226923 L73.5073077,68.9615385 C74.1232692,68.3463462 74.1232692,67.3615385 73.5073077,66.7461538 L50.5536538,43.7925 L43.6771154,50.6690385 L66.6307692,73.6226923 C67.2461538,74.2386538 68.2309615,74.2386538 68.8461538,73.6226923 Z" id="Fill-1" fill="#FF8B08"></path>
                <path d="M25.1382692,10.4234615 C16.9538462,10.4234615 10.2923077,17.0842308 10.2923077,25.2694231 C10.2923077,26.0386538 10.9232692,26.6688462 11.6925,26.6688462 C12.4617308,26.6688462 13.0919231,26.0386538 13.0919231,25.2694231 C13.0919231,18.6226923 18.4923077,13.2230769 25.1382692,13.2230769 C25.9075,13.2230769 26.5384615,12.5921154 26.5384615,11.8228846 C26.5384615,11.0386538 25.9075,10.4234615 25.1382692,10.4234615 Z" id="Fill-2" fill="#000000"></path>
                <path d="M51.5384615,42.8076923 C50.9998077,42.2690385 50.1075,42.2690385 49.5696154,42.8076923 L47.1228846,45.2536538 L43.8769231,42.0076923 C47.8613462,37.5613462 50.2923077,31.6846154 50.2923077,25.2536538 C50.2923077,11.3925 39.0151923,0.115384615 25.1540385,0.115384615 C11.2921154,0.115384615 0,11.3925 0,25.2536538 C0,39.1155769 11.2771154,50.3925 25.1382692,50.3925 C31.5692308,50.3925 37.4309615,47.9617308 41.8923077,43.9765385 L45.1382692,47.2232692 L42.6923077,49.6692308 C42.4309615,49.9305769 42.2769231,50.2844231 42.2769231,50.6540385 C42.2769231,51.0228846 42.4309615,51.3767308 42.6923077,51.6388462 L64.5230769,73.4694231 C65.3846154,74.3311538 66.5234615,74.8073077 67.7380769,74.8073077 C68.9536538,74.8073077 70.0923077,74.3311538 70.9540385,73.4694231 L73.3692308,71.0536538 C74.2307692,70.1919231 74.7076923,69.0538462 74.7076923,67.8384615 C74.7076923,66.6230769 74.2307692,65.485 73.3692308,64.6232692 L51.5384615,42.8076923 Z M2.79980769,25.2536538 C2.79980769,12.9309615 12.8305769,2.9 25.1540385,2.9 C37.4767308,2.9 47.5075,12.9309615 47.5075,25.2536538 C47.5075,37.5771154 37.4767308,47.6078846 25.1540385,47.6078846 C12.8305769,47.6078846 2.79980769,37.5771154 2.79980769,25.2536538 Z M71.4001923,69.0998077 L68.9844231,71.5155769 C68.6463462,71.8536538 68.2151923,72.0384615 67.7380769,72.0384615 C67.2619231,72.0384615 66.8307692,71.8536538 66.4926923,71.5155769 L45.6459615,50.6690385 L50.5536538,45.7613462 L71.4001923,66.6080769 C71.7382692,66.9461538 71.9230769,67.3773077 71.9230769,67.8534615 C71.9230769,68.3305769 71.7232692,68.7767308 71.4001923,69.0998077 Z" id="Fill-3" fill="#000000"></path>
            </g>
        </g>
        <path d="M47.3331182,8.17738963 L51.7831265,4 L47.3331182,-0.177389632 C46.9161708,-0.568793724 46.8954639,-1.22409203 47.286868,-1.64103937 C47.3017939,-1.65693926 47.3172183,-1.67236367 47.3331182,-1.6872895 L47.3331182,-1.6872895 C47.7852605,-2.11173247 48.4894126,-2.11173247 48.9415549,-1.6872895 L55,4 L48.9415549,9.6872895 C48.4894126,10.1117325 47.7852605,10.1117325 47.3331182,9.6872895 L47.3331182,9.6872895 C46.9161708,9.29588541 46.8954639,8.6405871 47.286868,8.22363976 C47.3017939,8.20773987 47.3172183,8.19231546 47.3331182,8.17738963 Z" id="keyboard_arrow_right-copy" fill="#D3D3D3" transform="translate(51.000000, 4.000000) rotate(-270.000000) translate(-51.000000, -4.000000) "></path>
        <g id="Page-1" transform="translate(0.000000, 900.000000)">
            <path d="M12.4080378,22.1633318 C12.1660506,22.1633318 11.95165,22.0294179 11.8437237,21.8142854 C11.6825603,21.4927954 11.8171051,21.1171596 12.1128135,20.9827623 C12.8378071,20.6071265 13.6968615,20.4732126 14.6367397,20.6071265 C14.9861692,20.6612722 15.2276724,20.9561728 15.1744353,21.3047358 C15.1202301,21.6537821 14.8250058,21.8950205 14.4755763,21.8413583 C13.7776853,21.7606232 13.160134,21.8413583 12.649541,22.1096695 C12.5958199,22.1362589 12.5154801,22.1633318 12.4080378,22.1633318 M18.5312814,23.7997887 C18.3701179,23.7997887 18.2089545,23.7461265 18.1015122,23.6122126 C17.6446404,23.1824311 17.0541917,22.7536166 16.4361564,22.4582325 C16.1138295,22.2972457 16.0068712,21.9216099 16.1680346,21.6267093 C16.3291981,21.3047358 16.7052462,21.1974113 17.0004705,21.358398 C17.7525667,21.7340338 18.4238391,22.216994 18.9881532,22.7536166 C19.2296564,22.994855 19.2296564,23.3975636 18.9881532,23.638802 C18.8531244,23.7190536 18.6919609,23.7997887 18.5312814,23.7997887 M11.5213968,25.8655437 C11.3336147,25.8655437 11.1458327,25.7848086 11.0112878,25.6238219 C10.5277974,24.9532854 10.2596756,24.3093384 10.2596756,23.638802 C10.2596756,23.424153 10.2862942,23.209504 10.3400154,22.994855 C10.4208391,22.6728815 10.7693006,22.4582325 11.1187301,22.5660404 C11.4410571,22.6462921 11.6559417,22.994855 11.5484994,23.3434179 C11.5213968,23.4512258 11.4947782,23.5585503 11.4947782,23.6653914 C11.4947782,24.0410272 11.6559417,24.4437358 11.9777846,24.8996232 C12.1931532,25.1679344 12.1389481,25.5701596 11.8437237,25.7848086 C11.763384,25.8389543 11.6559417,25.8655437 11.5213968,25.8655437 M21.6466244,27.7703119 C21.4051212,27.7703119 21.1902365,27.6359146 21.0827942,27.4212656 C21.0019705,27.5285901 20.8674256,27.6093252 20.7062622,27.6359146 C20.3578006,27.6895768 20.0354737,27.4749278 19.9812686,27.1263649 C19.8472077,26.4558285 19.6323231,25.8118815 19.3099962,25.1950073 C19.1493167,24.8996232 19.256275,24.497398 19.5786019,24.3364113 C19.8743103,24.1754245 20.2769769,24.282749 20.4381404,24.6047225 C20.7870859,25.2481861 21.0285891,25.9457954 21.1902365,26.6704775 C21.2439577,26.6163318 21.3242974,26.563153 21.4051212,26.5094907 C22.0226724,26.2411795 22.6407077,25.8921331 23.2848776,25.4899079 C23.5801019,25.3023318 23.95615,25.3825834 24.144416,25.6779675 C24.3326821,25.9728682 24.2518583,26.348504 23.95615,26.5360801 C23.258259,26.9653781 22.5865026,27.3410139 21.9152301,27.6359146 C21.8077878,27.7703119 21.7274481,27.7703119 21.6466244,27.7703119 M15.1202301,28.4142589 C15.0394064,28.4142589 14.9861692,28.4142589 14.9053455,28.3871861 C14.2074545,28.1459477 13.4553583,27.7432391 12.7836019,27.2873517 C12.4883776,27.0992921 12.4346564,26.6970669 12.6224385,26.4021662 C12.8107045,26.1067821 13.2133712,26.0531199 13.5085955,26.2411795 C14.1000122,26.6434046 14.7712846,26.9919675 15.3351147,27.2071 C15.6574417,27.3139411 15.8186051,27.6895768 15.7111628,28.0115503 C15.6308231,28.2532722 15.3888359,28.4142589 15.1202301,28.4142589 M17.4302397,28.7628219 L17.3223135,28.7628219 C16.9738519,28.7628219 16.7052462,28.4679212 16.7052462,28.1188748 C16.7052462,27.7703119 17.0004705,27.5020007 17.349416,27.5020007 L17.4573423,27.5020007 C18.1015122,27.5020007 18.746166,27.4212656 19.4174385,27.2602788 C19.766384,27.1800272 20.0887109,27.3946762 20.1695346,27.7166497 C20.2498744,28.0652126 20.0354737,28.3871861 19.7131468,28.4679212 C18.9073295,28.6820868 18.1552333,28.7628219 17.4302397,28.7628219 M20.3035955,32.089398 C20.2498744,32.089398 20.1966372,32.089398 20.1158135,32.0628086 C19.7934865,31.9550007 19.5786019,31.6064377 19.6860442,31.2844642 C19.9009288,30.586855 20.0083712,29.8897291 20.0620923,29.2187093 C20.0887109,28.8701464 20.3839353,28.6018351 20.7333647,28.6289079 C21.0827942,28.6554974 21.3514,28.9508815 21.3242974,29.2994444 C21.2705763,30.0502325 21.1094128,30.8285768 20.8945282,31.6064377 C20.8141885,31.9018219 20.5722013,32.089398 20.3035955,32.089398 M18.3163968,36.0865106 C18.1823359,36.0865106 18.0748936,36.0599212 17.9669673,35.9796695 C17.6717429,35.7916099 17.6185058,35.3889013 17.8058038,35.0940007 C18.2089545,34.5037159 18.5850026,33.8868417 18.9073295,33.2699675 C19.0684929,32.947994 19.444541,32.8406695 19.7397654,32.9745834 C20.0620923,33.1355702 20.1695346,33.511206 20.0354737,33.8061066 C19.6860442,34.5037159 19.2833776,35.1747358 18.8531244,35.7916099 C18.7190635,35.9796695 18.5312814,36.0865106 18.3163968,36.0865106" id="Fill-1" fill="#000001"></path>
            <path d="M25.4332397,25.4362457 C25.2454577,25.4362457 25.0576756,25.3555106 24.9231308,25.1945238 C24.7082462,24.926696 24.7619673,24.5239874 25.0305731,24.3093384 C25.2991788,24.0951728 25.5944032,23.853451 25.8896276,23.6122126 C26.1587173,23.3975636 26.561384,23.424153 26.7762686,23.6924642 C26.9911532,23.9607755 26.9640506,24.3630007 26.6954449,24.5776497 C26.4002205,24.8193715 26.0778936,25.0871993 25.7826692,25.3023318 C25.7023295,25.3825834 25.5673006,25.4362457 25.4332397,25.4362457" id="Fill-3" fill="#000001"></path>
            <path d="M43.8030189,13.5111397 C44.0479099,14.0405106 44.6799804,14.2715967 45.2099324,14.0269742 C45.7398843,13.7823517 45.971224,13.1553252 45.726817,12.6216033 C45.481926,12.0922325 44.8537272,11.8611464 44.3194196,12.1057689 C43.7899516,12.3503914 43.5581279,12.9774179 43.8030189,13.5111397 Z M45.5617817,20.0178086 L41.4388042,11.091504 L42.0578074,10.8067556 C44.5289804,9.6638947 47.4410542,10.7356894 48.5803298,13.2089874 C49.7249292,15.6813185 48.651958,18.5901993 46.1807849,19.7287093 L45.5617817,20.0178086 Z" id="Fill-5" fill="#FFCB00"></path>
            <path d="M45.7266234,12.6214583 C45.9715144,13.1551801 45.7396907,13.7822066 45.2102228,14.0268291 C44.6802708,14.2719351 44.0477163,14.0403656 43.8028253,13.5109947 C43.5584183,12.9772728 43.789758,12.3502464 44.3197099,12.1056238 C44.8535337,11.8610013 45.4817324,12.0920874 45.7266234,12.6214583" id="Fill-7" fill="#000001"></path>
            <polygon id="Fill-9" fill="#FFCB00" points="38.5223263 12.4392 42.6457878 21.3611536 40.3435218 22.4242464 36.2205442 13.5022927"></polygon>
            <path d="M37.293467,23.5805954 C35.2230247,23.8740457 33.0901497,22.7751781 32.1730183,20.7829066 C31.2515311,18.7949861 31.7989061,16.459953 33.3621433,15.0719861 L37.293467,23.5805954 Z" id="Fill-11" fill="#FFCB00"></path>
            <path d="M33.5265978,11.9989762 L38.5715465,9.66829404 L31.2959599,6.99098278 C30.1915304,6.58150596 28.9225497,7.16889007 28.5131074,8.27210861 C28.1080208,9.37484371 28.6960497,10.6467841 29.7999952,11.0514265 L33.0634343,12.2523007 C33.2328253,12.1725325 33.3533349,12.0743934 33.5265978,11.9989762 Z M41.9859856,5.42510861 C42.4138189,4.2735457 41.8393413,3.03689669 40.7039375,2.64530728 C39.599992,2.2406649 38.3266554,2.82804901 37.9210849,3.93126755 L37.0175048,6.3905457 L41.0824054,7.8848702 L41.9859856,5.42510861 Z M42.6456426,21.361347 L38.5221811,12.4393934 L36.220399,13.5020026 L40.3433766,22.4239563 L42.6456426,21.361347 Z M46.1805913,19.7287576 C48.6517644,18.5902477 49.7252196,15.6813669 48.5801362,13.2085523 C47.4408606,10.7357377 44.5287869,9.66394305 42.0576138,10.806804 L41.4390946,11.0915523 L45.5615881,20.017857 L46.1805913,19.7287576 Z M50.7981907,12.1454596 C52.5254952,15.886347 50.9003093,20.2982543 47.1557997,22.0284993 L39.7422804,25.4532146 C36.8926394,26.7647974 33.6292003,26.1068305 31.4789022,24.0608967 L27.8810369,22.7667179 L29.2076106,19.1549099 C29.1142035,17.3226583 29.6930369,15.516996 30.8240849,14.0802013 L28.9138381,13.3777576 C26.5050978,12.4882212 25.254024,9.77948609 26.1396971,7.36903576 C26.5675304,6.2169894 27.4222292,5.27862517 28.557633,4.75795629 C29.6881971,4.23341987 30.9620176,4.18894305 32.1153285,4.61147285 L34.5729503,5.51889669 L35.4765304,3.0591351 C36.3670433,0.653035762 39.0792356,-0.601017219 41.487492,0.284168212 C43.8967163,1.17322119 45.1477901,3.88195629 44.261633,6.29240662 L43.6871554,7.84474437 C46.621492,7.70261192 49.4977516,9.33036689 50.7981907,12.1454596 Z M32.1729215,20.7826649 C33.0905369,22.7754199 35.2229279,23.873804 37.2933702,23.5808371 L33.3620465,15.0722278 C31.7992933,16.4601947 31.2514343,18.7947444 32.1729215,20.7826649 Z" id="Fill-13" fill="#000001"></path>
            <path d="M36.1761638,34.6112821 C33.4097663,34.6112821 30.9656958,35.5772026 29.3279266,37.240249 C29.2471029,35.8721033 28.1726798,34.8525205 26.8030324,34.8525205 C25.3530452,34.8525205 24.2515196,35.9794278 24.2515196,37.4283086 L24.2515196,59.7484212 C24.2515196,61.197302 25.1918817,62.3237258 26.6152503,62.3237258 C28.0652375,62.3237258 28.9784971,61.197302 28.9784971,59.7484212 L28.9784971,47.4346265 C28.9784971,42.4981828 31.6374522,39.6545669 35.9878978,39.6545669 C37.3846478,39.6545669 38.5931317,38.528143 38.5931317,37.1329245 C38.5931317,35.7381894 37.5458112,34.6112821 36.1761638,34.6112821" id="Fill-15" fill="#FF8B08"></path>
            <path d="M51.6458718,57.7363285 C46.8114519,57.7363285 44.4753077,54.704653 44.4753077,48.4807987 C44.4753077,42.2840172 46.8114519,39.2789311 51.6458718,39.2789311 C56.4798077,39.2789311 58.8164359,42.2840172 58.8164359,48.4807987 C58.8164359,54.7317258 56.4798077,57.7363285 51.6458718,57.7363285 M51.6458718,34.4768848 C43.6694904,34.4768848 39.2919423,39.4399179 39.2919423,48.4807987 C39.2919423,57.5487523 43.6694904,62.5383748 51.6458718,62.5383748 C59.6217692,62.5383748 63.9998013,57.5487523 63.9998013,48.4807987 C63.9998013,39.4669907 59.6217692,34.4768848 51.6458718,34.4768848" id="Fill-17" fill="#FF8B08"></path>
            <path d="M96.8459311,34.8258828 C95.771508,34.8258828 94.8316298,35.4698298 94.4555817,36.4889291 L88.8961683,52.3173596 L84.3569728,36.5425914 C84.088851,35.6844788 83.2564151,34.8258828 81.9400048,34.8258828 C80.6240785,34.8258828 79.7645401,35.6844788 79.5230369,36.5696642 L74.9843253,52.343949 L69.4249119,36.516002 L69.4249119,36.4889291 C69.0222452,35.4698298 68.1089856,34.8258828 67.0345625,34.8258828 C65.5840913,34.8258828 64.4564311,35.9527901 64.4564311,37.4011874 C64.4564311,37.7231609 64.5367708,38.0987967 64.6713157,38.4473596 L72.7551394,60.6069689 C73.1582901,61.6265517 74.0710657,62.2704987 75.1454888,62.2704987 C76.3002516,62.2704987 77.3204696,61.5192272 77.6166619,60.4189093 L81.9133862,45.6371344 L86.2101106,60.3923199 C86.5324375,61.4921543 87.5531394,62.2434258 88.6812837,62.2434258 C89.7557067,62.2434258 90.6955849,61.5994788 91.0982516,60.5533066 L99.1820753,38.3936974 C99.3161362,38.0451344 99.3969599,37.6694987 99.3969599,37.3475252 C99.3969599,35.9527901 98.2688157,34.8258828 96.8459311,34.8258828" id="Fill-19" fill="#FF8B08"></path>
            <path d="M118.733962,50.9223344 C118.733962,55.3221556 116.693042,57.7630629 112.503276,57.7630629 C107.74968,57.7630629 105.655039,54.8121225 105.655039,48.5075331 C105.655039,42.3107517 107.74968,39.306149 112.422936,39.306149 C116.5856,39.306149 118.331295,42.7666391 118.706859,43.5179106 L118.706859,50.9223344 L118.733962,50.9223344 Z M121.284991,21.0634007 C119.835004,21.0634007 118.733962,22.1903079 118.733962,23.6387053 L118.733962,36.8647583 C117.63292,35.5768642 115.135129,34.4770298 112.288391,34.4770298 C106.863523,34.4770298 100.552013,36.9184205 100.552013,48.4809437 C100.552013,53.0954139 101.680157,56.6366391 103.801417,59.0238841 C105.869439,61.3579503 108.904443,62.5385199 112.744779,62.5385199 C116.15583,62.5385199 118.787683,61.5189371 120.801984,59.6141689 C122.95083,57.5754868 123.86409,54.5708841 123.86409,50.8952616 L123.86409,23.6387053 C123.836988,22.1903079 122.708843,21.0634007 121.284991,21.0634007 Z" id="Fill-21" fill="#FF8B08"></path>
            <g id="Group-25" transform="translate(126.317308, 34.675000)">
                <mask id="mask-32" fill="white">
                    <use xlink:href="#path-31"></use>
                </mask>
                <g id="Clip-24"></g>
                <path d="M21.9858904,0.150882781 C20.8582301,0.150882781 20.0253103,0.74116755 19.596025,1.81392914 L12.5861404,18.956843 L5.57673974,1.81392914 C5.14697051,0.74116755 4.28743205,0.150882781 3.18639038,0.150882781 C1.73591923,0.150882781 0.608258974,1.27779007 0.608258974,2.72618742 C0.608258974,3.18255828 0.715701282,3.50453179 0.796041026,3.69210795 L0.822659615,3.7723596 L9.90056667,25.3150947 C7.75220449,30.6266907 6.62406026,33.3093199 2.46091282,33.3093199 C1.09126538,33.3093199 0.0168423077,34.3825649 0.0168423077,35.7507106 C0.0168423077,37.1188563 1.09126538,38.1921013 2.46091282,38.1921013 C7.67138077,38.1921013 10.9749897,35.6163132 13.4994,29.5534457 L24.3496212,3.7723596 L24.4033423,3.6384457 C24.4836821,3.45038609 24.5911244,3.15548543 24.5911244,2.67252517 C24.5645058,1.27779007 23.4363615,0.150882781 21.9858904,0.150882781" id="Fill-23" fill="#FF8B08" mask="url(#mask-32)"></path>
            </g>
            <g id="Group-28" transform="translate(0.000000, 20.655132)">
                <mask id="mask-34" fill="white">
                    <use xlink:href="#path-33"></use>
                </mask>
                <g id="Clip-27"></g>
                <path d="M20.9754003,37.5105907 L11.7363298,25.196796 L17.2420221,20.1801007 C18.262724,19.2407695 18.3435478,17.6584583 17.4031856,16.6388755 C16.4633074,15.6192927 14.8782913,15.5390411 13.8580734,16.4778887 L5.10297724,24.4455245 L5.10297724,24.1506238 L5.10297724,2.79594834 C5.10297724,1.34706755 4.00193558,0.220643709 2.55146442,0.220643709 C1.10147724,0.220643709 -4.83974359e-05,1.34706755 -4.83974359e-05,2.79594834 L-4.83974359e-05,38.8787364 C-4.83974359e-05,40.3276172 1.12809583,41.4540411 2.55146442,41.4540411 C4.00193558,41.4540411 5.10297724,40.3276172 5.10297724,38.8787364 L5.10297724,31.2330742 L8.00343558,28.5770344 L16.9734163,40.5151934 C17.4569067,41.1857298 18.2356215,41.5077033 18.9882016,41.5077033 C19.5249292,41.5077033 20.0355221,41.3467166 20.4919099,40.9981536 C21.5924676,40.1932199 21.8078362,38.6104252 20.9754003,37.5105907" id="Fill-26" fill="#F08700" mask="url(#mask-34)"></path>
            </g>
        </g>
    </g>
</svg>