<?xml version="1.0" encoding="UTF-8"?>
<svg width="42px" height="42px" viewBox="0 0 42 42" version="1.1" xmlns="http://www.w3.org/2000/svg" xmlns:xlink="http://www.w3.org/1999/xlink">
    <!-- Generator: Sketch 49 (51002) - http://www.bohemiancoding.com/sketch -->
    <title>twitter</title>
    <desc>Created with Sketch.</desc>
    <defs></defs>
    <g id="WEB" stroke="none" stroke-width="1" fill="none" fill-rule="evenodd">
        <g id="sprite_global_a" transform="translate(0.000000, -43.000000)">
            <g id="twitter" transform="translate(1.000000, 44.000000)">
                <path d="M30.7529244,13.1087227 C29.9497311,13.4626723 29.092084,13.7036303 28.1867899,13.8125378 C29.1084202,13.2584706 29.8176807,12.3831261 30.1512101,11.3403361 C29.2881176,11.8440336 28.3310924,12.2115966 27.3128067,12.4157983 C26.4987227,11.5445378 25.3388571,11 24.0510252,11 C21.5842689,11 19.5830924,13.0011765 19.5830924,15.4652101 C19.5830924,15.8191597 19.6239328,16.1594958 19.6988067,16.4862185 C15.9850588,16.3092437 12.6919664,14.5258824 10.4879496,11.8304202 C10.1013277,12.4852269 9.88351261,13.2475798 9.88351261,14.078 C9.88351261,15.6299328 10.6730924,16.9953613 11.8710756,17.7971933 C11.1386723,17.7740504 10.4484706,17.5725714 9.8467563,17.239042 L9.8467563,17.2934958 C9.8467563,19.4580336 11.3850756,21.2658992 13.4311765,21.6770252 C13.0554454,21.7777647 12.6606555,21.8322185 12.2536134,21.8322185 C11.9677311,21.8322185 11.6954622,21.8049916 11.4231933,21.7532605 C11.994958,23.5284538 13.6421849,24.8203697 15.602521,24.8571261 C14.0778151,26.0551092 12.1447059,26.7684538 10.0618487,26.7684538 C9.70789916,26.7684538 9.35394958,26.7480336 9,26.7071933 C10.987563,27.9732437 13.3290756,28.7138151 15.8611765,28.7138151 C24.0836975,28.7138151 28.5761345,21.9070924 28.5761345,16.0124706 C28.5761345,15.8218824 28.5761345,15.6312941 28.562521,15.4407059 C29.4337815,14.8144874 30.1961345,14.0249076 30.7951261,13.1264202 L30.7529244,13.1087227 Z" id="Shape" fill="#3F4247"></path>
                <circle id="Oval-4" stroke="#3F4247" cx="20" cy="20" r="20"></circle>
            </g>
        </g>
    </g>
</svg>