<?xml version="1.0" encoding="UTF-8"?>
<svg width="42px" height="42px" viewBox="0 0 42 42" version="1.1" xmlns="http://www.w3.org/2000/svg" xmlns:xlink="http://www.w3.org/1999/xlink">
    <!-- Generator: Sketch 48.2 (47327) - http://www.bohemiancoding.com/sketch -->
    <title>youtube</title>
    <desc>Created with Sketch.</desc>
    <defs></defs>
    <g id="Assets" stroke="none" stroke-width="1" fill="none" fill-rule="evenodd" transform="translate(-782.000000, -112.000000)">
        <g id="youtube" transform="translate(782.000000, 113.000000)">
            <circle id="Oval-4-Copy-3" stroke="#3F4247" cx="20.9333333" cy="20" r="20"></circle>
            <path d="M30.15,14.3186603 C29.6075,13.3582775 29.01875,13.1816268 27.82,13.1144498 C26.6225,13.0335885 23.61125,13 21.0025,13 C18.38875,13 15.37625,13.0335885 14.18,13.1132057 C12.98375,13.1816268 12.39375,13.3570335 11.84625,14.3186603 C11.2875,15.277799 11,16.9298565 11,19.8383732 C11,19.8408612 11,19.8421053 11,19.8421053 C11,19.8445933 11,19.8458373 11,19.8458373 L11,19.8483254 C11,22.7444019 11.2875,24.4088995 11.84625,25.3580861 C12.39375,26.3184689 12.9825,26.4926316 14.17875,26.5734928 C15.37625,26.6431579 18.38875,26.6842105 21.0025,26.6842105 C23.61125,26.6842105 26.6225,26.6431579 27.82125,26.5747368 C29.02,26.4938756 29.60875,26.3197129 30.15125,25.3593301 C30.715,24.4101435 31,22.7456459 31,19.8495694 C31,19.8495694 31,19.8458373 31,19.8433493 C31,19.8433493 31,19.8408612 31,19.8396172 C31,16.9298565 30.715,15.277799 30.15,14.3186603 Z M18.5,23.5741627 L18.5,16.1100478 L24.75,19.8421053 L18.5,23.5741627 Z" id="Shape" fill="#3F4247" fill-rule="nonzero"></path>
        </g>
    </g>
</svg>